<?xml version="1.0" encoding="UTF-8" standalone="no"?>
<svg
   xmlns:dc="http://purl.org/dc/elements/1.1/"
   xmlns:cc="http://creativecommons.org/ns#"
   xmlns:rdf="http://www.w3.org/1999/02/22-rdf-syntax-ns#"
   xmlns:svg="http://www.w3.org/2000/svg"
   xmlns="http://www.w3.org/2000/svg"
   xmlns:sodipodi="http://sodipodi.sourceforge.net/DTD/sodipodi-0.dtd"
   xmlns:inkscape="http://www.inkscape.org/namespaces/inkscape"
   enable_background="new 0 0 1000 589"
   height="520.45245"
   pretty_print="False"
   style="fill:none;stroke:#ffbb00;stroke-linejoin:round"
   version="1.1"
   viewBox="0 0 832.41328 520.45246"
   width="832.41327"
   id="svg"
   inkscape:version="1.0.2 (e86c870879, 2021-01-15, custom)"
   sodipodi:docname="usa.svg">
  <sodipodi:namedview
     pagecolor="#none"
     bordercolor="#ffbb00"
     borderopacity="1"
     objecttolerance="10"
     gridtolerance="10"
     guidetolerance="10"
     inkscape:pageopacity="0"
     inkscape:pageshadow="2"
     inkscape:window-width="1920"
     inkscape:window-height="1001"
     id="namedview69"
     showgrid="false"
     inkscape:zoom="0.80893016"
     inkscape:cx="295.4195"
     inkscape:cy="170.6598"
     inkscape:window-x="-9"
     inkscape:window-y="-9"
     inkscape:window-maximized="1"
     inkscape:current-layer="svg"
     inkscape:document-rotation="0"
     fit-margin-top="0"
     fit-margin-left="0"
     fit-margin-right="0"
     fit-margin-bottom="0" />
  <defs
     id="defs4">
    <style
       type="text/css"
       id="style6">path { fill-rule: evenodd; }</style>
    <clipPath
       clipPathUnits="userSpaceOnUse"
       id="clipPath887">
      <rect
         style="fill:#0000ff;fill-rule:evenodd;stroke-width:1.47432"
         id="rect889"
         width="220.33521"
         height="211.39032"
         x="92.436714"
         y="336.51788" />
    </clipPath>
    <clipPath
       clipPathUnits="userSpaceOnUse"
       id="clipPath895">
      <rect
         style="fill:#0000ff;fill-rule:evenodd"
         id="rect897"
         width="147.10788"
         height="121.14767"
         x="297.92435"
         y="391.87561" />
    </clipPath>
  </defs>
  <metadata
     id="metadata8">
    <views
       id="views10">
      <view
         h="589.235294118"
         padding="0"
         w="1000"
         id="view12">
        <proj
           id="laea-usa"
           lat0="45"
           lon0="-100" />
        <bbox
           h="321.97"
           w="589.33"
           x="690.09"
           y="918.69"
           id="bbox15" />
      </view>
    </views>
    <rdf:RDF>
      <cc:Work
         rdf:about="">
        <dc:format>image/svg+xml</dc:format>
        <dc:type
           rdf:resource="http://purl.org/dc/dcmitype/StillImage" />
        <dc:title></dc:title>
      </cc:Work>
    </rdf:RDF>
  </metadata>
  <path
     inkscape:connector-curvature="0"
     id="MA"
     data-name="Massachusetts"
     data-id="MA"
     d="m 806.49745,131.71469 -0.29118,-0.19412 v 0.29119 l 0.29118,-0.0971 z m -2.91189,-2.6207 0.67944,-0.29119 v -0.38825 z m 12.03583,-7.57092 -0.0971,-1.35889 -0.19412,-0.7765 0.29119,2.13539 z m -42.41659,-9.9975 -0.67944,0.29119 -5.5326,1.65007 -1.94126,0.67944 -2.23245,0.67944 -0.7765,0.29119 v 0.29119 l 0.29118,5.04728 0.29119,4.65903 0.29119,4.27078 0.48532,0.29119 1.74714,-0.48532 7.86211,-2.32951 0.19412,0.48531 13.97709,-5.33847 0.0971,0.19413 1.26182,-0.48532 4.4649,-1.74713 4.27078,5.14434 v 0 l 0.58238,-0.48531 0.29119,-1.45595 -0.0971,2.32952 v 0 h 0.97063 l 0.29119,1.16475 0.87357,1.65008 v 0 l 4.56197,-5.5326 3.78546,1.26182 0.87357,-1.94126 6.21204,-3.30015 -2.62071,-5.14435 0.67945,3.30015 -3.20309,2.42658 -3.59133,0.29119 -7.18267,-7.66799 -3.20309,-4.85315 3.20309,-3.39721 -3.30015,-0.19413 -1.35888,-3.20308 -0.0971,-0.19413 -5.53259,6.01791 -12.22996,4.07666 -3.97959,1.26182 v 0 z"
     style="fill:none;stroke-width:0.970631" />
  <path
     inkscape:connector-curvature="0"
     id="MN"
     data-name="Minnesota"
     data-id="MN"
     d="m 408.73279,52.511184 1.94126,6.891482 4.07665,24.848159 1.94126,9.90044 0.58238,8.735685 2.23246,5.24141 0.48531,4.4649 0.38825,1.45595 -0.0971,0.29119 -3.88252,6.40616 2.52364,4.27078 4.85315,34.16622 0.19413,4.4649 4.85315,-0.29119 19.12144,-1.06769 47.75505,-3.97959 4.7561,-0.48532 v -0.48531 l -1.35889,-7.47386 -5.92085,-3.00896 -4.65903,-4.85315 -7.37679,-4.46491 -2.32952,-0.19412 -3.59133,-2.71777 0.97063,-13.39471 -3.39721,-3.10602 1.16476,-5.43554 6.21204,-5.62966 -1.0677,-11.647575 2.23245,-2.52364 v 0 l 7.57093,-7.95918 8.63861,-11.065195 3.30015,-2.329514 5.82379,-2.814831 6.11497,-4.561967 -4.07665,0.776505 -2.42658,-1.844199 -9.31806,1.261821 -1.45594,-1.747136 -8.34743,3.397209 -6.69736,-2.814831 -1.84419,-2.232452 -5.33848,0.388253 -3.59133,-1.844199 1.16476,-1.358884 -4.56197,-1.455947 h -4.07665 l -6.50323,2.814831 -1.26182,-1.941263 -10.28869,-1.455947 -3.49427,-8.73568 -0.38826,-2.620705 -4.4649,-1.26182 0.38825,7.47386 -11.8417,0.873568 -14.65653,0.582379 -0.97063,0.09706 z"
     style="fill:none;stroke-width:0.970631" />
  <path
     inkscape:connector-curvature="0"
     id="MT"
     data-name="Montana"
     data-id="MT"
     d="M 315.84338,51.637616 283.71549,49.502227 260.32328,47.269776 237.02813,44.552008 222.56572,42.610746 199.4647,39.01941 187.91419,37.078148 162.0954,32.127929 l -2.71777,-0.582379 -4.17371,19.800877 1.8442,3.591335 1.45595,5.532598 -0.87357,0.776505 1.8442,5.047282 2.52364,2.135389 7.18267,12.035829 0.67944,2.03832 2.91189,-0.19412 -3.39721,15.91835 -1.35888,0.38825 -1.8442,5.338475 9.60925,0.67944 0.77651,4.46491 5.43553,13.29765 0.97063,0.7765 3.78546,7.76505 0.97063,-0.7765 8.05624,-0.0971 10.19163,1.0677 2.52364,-3.30015 3.00896,5.43553 0.58238,0.29119 0.0971,-0.58237 1.35888,-9.51219 33.19559,4.07665 26.49823,2.52364 13.97709,1.16476 24.94522,1.45595 1.26182,0.0971 h 0.29119 l 0.0971,-1.35888 0.29119,-6.69736 0.38825,-8.83274 0.0971,-2.23246 0.19413,-3.88252 1.55301,-30.477825 1.26182,-23.683401 0.0971,-3.882525 -1.8442,-0.09706 z"
     style="fill:none;stroke-width:0.970631" />
  <path
     inkscape:connector-curvature="0"
     id="ND"
     data-name="North Dakota"
     data-id="ND"
     d="m 406.69446,52.511184 -29.31306,0.582379 -20.48032,-0.09706 -17.56842,-0.388253 -20.57738,-0.776505 -1.0677,-0.09706 -0.0971,3.882525 -1.26182,23.683405 -1.55301,30.477825 -0.19413,3.88252 3.78546,0.19413 42.80484,1.16476 39.50469,-0.29119 16.40367,-0.48532 3.30014,-0.19412 -0.38825,-1.45595 -0.48531,-4.4649 -2.23246,-5.24141 -0.58238,-8.735685 -1.94126,-9.90044 -4.07665,-24.848163 -1.94126,-6.891482 h -2.03833 z"
     style="fill:none;stroke-width:0.970631" />
  <path
     inkscape:connector-curvature="0"
     id="HI"
     data-name="Hawaii"
     data-id="HI"
     d="m 405.72388,476.18055 -3.00896,-2.23245 -2.6207,0.67944 0.58238,5.43553 -3.59134,4.46491 3.10602,7.08561 0.87357,7.27973 3.59133,2.32951 2.23246,-3.59133 3.97958,-2.91189 4.85316,-1.26183 5.33847,-4.56196 -5.24141,-4.46491 -0.0971,-2.71776 -9.9975,-5.5326 z m -17.66549,-7.86211 -1.45595,-1.26182 -1.35888,1.8442 z m -7.27973,-4.17372 0.38825,-3.59133 -1.8442,-0.29119 z m 6.11497,-5.92085 -1.65007,0.77651 1.16476,3.6884 2.52364,0.19412 0.7765,3.20308 2.71777,1.16476 6.01791,-2.81483 -5.62966,-4.65903 z m -12.42408,-3.97959 -0.87356,2.62071 4.17371,-0.0971 3.88252,0.97063 -2.03832,-3.20309 -5.14435,-0.29119 z m -12.22995,-7.66798 -2.23245,-2.13539 -4.27078,3.30015 2.71777,5.04728 1.94126,-2.03833 5.5326,1.16476 -0.48532,-2.32952 z m -43.48428,-4.27078 0.58238,-1.35888 1.65007,-0.87357 z m 15.43304,-8.83274 -6.79442,2.52364 -0.67944,1.8442 2.71777,1.94126 3.78546,0.97063 2.71776,-5.33847 z m -47.07561,-17.85962 v -0.0971 h -0.19413 z m -51.44346,-12.71527 v 0.19413 h 0.0971 z m -26.98355,-4.4649 0.0971,0.0971 v 0 z m -1.06769,-1.94126 z m -0.87357,-0.97063 h -0.19412 v 0.0971 z m 0.67944,0 h -0.0971 z m -0.0971,-0.0971 v 0 0.0971 z m -30.47782,-25.04228 -0.0971,-0.29119 v 0.0971 l 0.0971,0.19413 z m -66.48824,-21.25682 -0.29119,0.29118 0.19413,0.0971 0.0971,-0.38825 z M 39.990006,300.10802 Z m 2.426578,0.0971 h -0.09706 v 0 z m -0.485316,-0.0971 z m -41.4459525,-18.1508 0.291189,-0.0971 V 281.666 l -0.291189,0.29119 z"
     style="fill:none;stroke-width:0.970631"
     clip-path="url(#clipPath895)"
     transform="translate(-84.482623,11.32463)" />
  <path
     inkscape:connector-curvature="0"
     id="ID"
     data-name="Idaho"
     data-id="ID"
     d="m 159.28057,31.54555 -8.63862,-1.747136 -2.81483,-0.679442 -1.26182,-0.291189 -11.25932,50.666952 0.48532,4.17371 -0.38826,4.36784 0.19413,0.97063 v 0.0971 l 0.0971,1.84419 3.30015,3.59134 -4.75609,11.938765 -10.09457,13.20059 -0.29119,2.42658 2.62071,6.21204 -9.221,38.24287 -0.38825,2.03832 2.71776,0.58238 27.46887,5.43553 10.96813,2.03833 2.81483,0.48532 2.71777,0.48531 13.97709,2.23245 25.04228,3.78546 2.81483,0.38826 0.38825,-3.20309 0.87357,-6.3091 3.30015,-25.23641 1.74714,-12.52114 0.38825,-3.20309 -0.58238,-0.29119 -3.00896,-5.43553 -2.52364,3.30015 -10.19163,-1.0677 -8.05624,0.0971 -0.97063,0.7765 -3.78546,-7.76505 -0.97063,-0.7765 -5.43553,-13.29765 -0.77651,-4.46491 -9.60925,-0.67944 1.8442,-5.338475 1.35888,-0.38825 3.39721,-15.91835 -2.91189,0.19412 -0.67944,-2.03832 -7.18267,-12.035829 -2.52364,-2.135389 -1.8442,-5.047282 0.87357,-0.776505 -1.45595,-5.532598 -1.8442,-3.591335 4.17371,-19.800877 h -0.0971 z"
     style="fill:none;stroke-width:0.970631" />
  <path
     inkscape:connector-curvature="0"
     id="WA"
     data-name="Washington"
     data-id="WA"
     d="m 42.319515,55.714267 0.0971,-1.650073 -0.19412,0.09706 0.0971,1.55301 z m 20.674449,-8.832744 0.58237,-0.970631 -0.67944,-0.09706 0.0971,1.067694 z m -1.8442,-1.747136 0.58237,-1.941262 -0.58237,-0.194127 z m 7.0856,-2.814831 -0.0971,-1.941262 -1.65007,2.523641 1.74713,-0.582379 z m 0.19413,-4.076651 0.29119,-1.941262 -0.19413,-0.485316 -0.0971,2.426578 z m 0.29119,-9.512185 -0.0971,-1.067695 -0.38826,-0.09706 0.48532,1.164758 z m 3.10602,-6.406166 -0.87357,-0.09706 -1.74713,2.717767 2.6207,-2.620704 z m -2.42658,-2.620705 0.48532,-0.388252 0.0971,-0.291189 -0.58238,0.679441 z m -0.48531,0.29119 -0.29119,-1.941263 -0.87357,1.650073 z m -0.48532,-2.717768 -0.87357,-0.388252 0.67944,0.970631 z m 2.91189,1.650074 v -1.261821 l -0.29119,0.485316 z m 0.87357,-1.261821 -0.38825,-0.291189 h -0.0971 l 0.48531,0.291189 z m -5.5326,-2.135389 -0.48531,-0.388252 -0.19413,-0.09706 0.67944,0.485315 z m 3.59134,-0.388252 -2.6207,0.679442 0.67944,0.194126 z m -2.13539,-0.194126 -0.48531,-0.582379 -0.0971,0.09706 0.58238,0.485316 z m 2.03833,-1.164758 h -0.38826 l 0.48532,0.194126 -0.0971,-0.194126 z m -19.024379,49.793381 3.494279,3.785461 -0.58238,7.279734 0.67944,1.8442 5.24141,2.81483 14.75359,1.35888 0.58238,1.74714 6.98855,0.0971 6.60029,0.87357 10.774,-1.16476 5.338476,0.87357 1.45594,-0.67944 27.27474,6.21204 1.8442,0.38825 -0.19413,-0.97063 0.38826,-4.36784 -0.48532,-4.17371 11.25932,-50.666952 -1.55301,-0.29119 -22.71277,-5.338471 -19.80087,-5.047282 -22.421586,-6.21204 -6.69735,-1.650073 1.55301,8.444491 -1.45595,2.717768 -2.6207,-1.358884 2.52364,11.744637 -2.71777,3.882525 -1.26182,3.591336 v 3.688398 l -5.72672,3.979588 -2.42658,-1.55301 -2.32952,1.164758 4.27078,-5.532598 -1.06769,3.785462 2.42658,-2.620705 1.94126,0.388253 -0.58238,-4.853156 1.26182,0.194126 2.6207,-5.823787 -0.87356,-0.873568 -3.39721,4.36784 -2.23246,0.09706 2.42658,-2.717767 2.71777,-0.679442 -0.97063,-4.950219 -2.71777,-0.679442 -1.35888,-2.329515 -1.65008,0.873568 -8.929799,-3.882524 -7.86211,-6.114977 -2.13539,5.92085 -0.19413,2.523641 1.65007,4.464904 -1.06769,14.462405 -0.77651,2.232452 4.36784,0.388252 -4.36784,3.10602 2.32952,1.164757 -1.8442,6.21204 -0.87357,-4.853156 -1.65007,5.629661 2.23245,2.717767 2.42658,-0.194126 2.91189,1.747136 1.45595,2.814831 h 1.74713 v 0 z"
     style="fill:none;stroke-width:0.970631" />
  <path
     inkscape:connector-curvature="0"
     id="AZ"
     data-name="Arizona"
     data-id="AZ"
     d="m 222.3716,288.5687 -32.71027,-4.07665 -17.56843,-2.52365 -25.04228,-3.97958 -2.52364,-0.38826 v 0.19413 l -4.27078,18.83025 -2.23245,-0.0971 -3.39721,-3.00895 -4.27078,3.59133 -0.0971,15.43304 -1.55301,3.30014 v 0.29119 0.0971 l -0.19413,2.42657 3.39721,9.12394 3.00896,4.07665 -5.43554,3.20308 -2.13539,3.97959 -3.49427,8.54155 -1.74713,0.38826 -0.0971,7.0856 3.00896,2.23246 -1.55301,4.27077 -3.49427,0.19413 v 0 l -2.03833,3.78546 6.98855,4.36784 13.20058,7.3768 40.76651,21.64507 34.55447,4.27078 h 0.38825 l 2.71777,-28.63362 0.67944,-7.08561 7.27974,-75.12685 0.38825,-3.49427 -2.52364,-0.29119 z"
     style="fill:none;stroke-width:0.970631" />
  <path
     inkscape:connector-curvature="0"
     id="CA"
     data-name="California"
     data-id="CA"
     d="m 56.199544,342.43873 0.38825,2.13539 v 0.38825 z m -14.268279,-8.34743 0.67944,1.45595 0.38825,-0.0971 -1.06769,-1.35888 z m 16.986039,-0.29119 0.29119,2.52364 1.74714,1.26182 z m -11.744629,-13.78296 -1.0677,-0.29119 0.87357,0.38825 0.19413,-0.0971 z m -10.77401,-2.9119 -2.6207,1.55301 0.67944,0.67945 z m -5.04728,-1.8442 -0.19413,0.77651 0.87357,0.19413 z m 8.54155,1.94127 4.27078,2.42658 0.77651,-0.67945 z m -33.0985201,-85.51261 -0.0971,0.0971 z m 10.3857501,0.48531 -0.0971,-0.29119 v 0.38826 l 0.0971,-0.0971 z m 56.005419,-73.6709 -3.78546,-0.97064 -41.543009,-11.45344 -15.43304,-4.65903 v 0.38825 l -0.87357,9.60925 -4.0766501,11.35638 -6.79441997,8.44449 -0.19412,4.27078 3.30013997,5.92085 1.65008,7.76505 -2.32952,6.3091 0.38825,6.30911 -1.16475,2.6207 3.97958,8.63862 2.52364,3.30015 -0.19412,9.41512 6.0179101,5.72672 3.49427,-5.82378 3.78547,3.00895 1.45594,-1.35888 -5.24141,0.97063 -0.0971,4.95022 1.0677,6.21204 -2.9119,-2.81483 -1.65007,-3.78546 -0.48532,5.2414 1.35889,10.38576 5.43553,6.69735 -3.59133,4.65903 0.58237,5.92085 3.88253,6.01792 6.79442,18.63612 2.13539,1.16475 -0.67945,12.9094 1.0677,1.55301 14.55947,5.24141 4.4649,4.75609 1.55301,3.10602 4.270779,2.42658 4.65903,0.87357 1.94126,5.33847 3.88252,1.8442 5.82379,6.89148 5.43554,9.02687 -0.38826,8.34743 3.00896,3.97958 39.698816,3.88253 v 0 l 3.49427,-0.19413 1.55301,-4.27077 -3.00896,-2.23246 0.0971,-7.0856 1.74713,-0.38826 3.49427,-8.54155 2.13539,-3.97959 5.43554,-3.20308 -3.00896,-4.07665 -3.39721,-9.12394 0.19413,-2.42657 v -0.0971 l -2.52364,-3.39721 -7.76505,-10.38575 -15.04479,-21.15976 -20.965626,-30.08957 -11.8417,-16.40366 -11.45345,-16.50074 13.20058,-56.00542 0.87357,-3.68839 z"
     style="fill:none;stroke-width:0.970631" />
  <path
     inkscape:connector-curvature="0"
     id="CO"
     data-name="Colorado"
     data-id="CO"
     d="m 339.81797,234.21335 0.38826,-19.02437 -4.65903,-0.19413 -23.6834,-0.87357 -2.32952,-0.0971 -1.94126,-0.0971 -28.82775,-1.8442 -19.2185,-1.55301 -23.97459,-2.32952 -2.32951,-0.29119 -0.29119,2.52365 -5.24141,50.56988 -1.8442,17.66549 -0.7765,7.66799 -0.19413,2.52364 3.00896,0.29119 48.91981,4.27077 21.54801,1.35889 21.45095,0.97063 3.10602,0.0971 1.94126,0.0971 4.07665,0.0971 1.94127,0.0971 6.11497,0.19413 h 1.55301 v -1.94127 l 1.0677,-51.34639 0.0971,-5.72672 v -1.8442 l 0.0971,-1.26182 z"
     style="fill:none;stroke-width:0.970631" />
  <path
     inkscape:connector-curvature="0"
     id="NV"
     data-name="Nevada"
     data-id="NV"
     d="m 145.01229,274.49454 10.09457,-62.79983 5.14434,-31.44846 0.58238,-3.10601 -2.81483,-0.48532 -10.96813,-2.03833 -27.46887,-5.43553 -2.71776,-0.58238 -2.71777,-0.58238 -13.6859,-3.00895 -24.556966,-5.82379 -2.71777,-0.67944 -0.87357,3.68839 -13.20058,56.00542 11.45345,16.50074 11.8417,16.40366 20.965626,30.08957 15.04479,21.15976 7.76505,10.38575 2.52364,3.39721 v -0.29119 l 1.55301,-3.30014 0.0971,-15.43304 4.27078,-3.59133 3.39721,3.00895 2.23245,0.0971 4.27078,-18.83025 v -0.19413 l 0.48531,-3.10602 z"
     style="fill:none;stroke-width:0.970631" />
  <path
     inkscape:connector-curvature="0"
     id="NM"
     data-name="New Mexico"
     data-id="NM"
     d="m 322.6378,303.41935 0.0971,-2.52364 0.0971,-2.52364 0.0971,-2.52364 -3.10602,-0.0971 -21.45095,-0.97063 -21.54801,-1.35889 -48.91981,-4.27077 -3.00896,-0.29119 -0.38825,3.49427 -7.27974,75.12685 -0.67944,7.08561 -2.71777,28.63362 0.38826,0.0971 13.39471,1.26183 1.26182,-6.79442 2.42658,-1.94127 27.17767,2.42658 h 0.19413 l -2.42658,-4.75609 12.32701,0.87357 30.76901,1.74713 19.2185,0.87357 3.30015,-91.0452 0.67944,0.0971 0.0971,-2.62071 z"
     style="fill:none;stroke-width:0.970631" />
  <path
     inkscape:connector-curvature="0"
     id="OR"
     data-name="Oregon"
     data-id="OR"
     d="m 12.424075,141.42101 15.43304,4.65903 41.543009,11.45344 3.78546,0.97064 2.71777,0.67944 24.556966,5.82379 13.6859,3.00895 2.71777,0.58238 0.38825,-2.03832 9.221,-38.24287 -2.62071,-6.21204 0.29119,-2.42658 10.09457,-13.20059 4.75609,-11.938765 -3.30015,-3.59134 -0.0971,-1.84419 v -0.0971 l -1.8442,-0.38825 -27.27474,-6.21204 -1.45594,0.67944 -5.338476,-0.87357 -10.774,1.16476 -6.60029,-0.87357 -6.98855,-0.0971 -0.58238,-1.74714 -14.75359,-1.35888 -5.24141,-2.81483 -0.67944,-1.8442 0.58238,-7.279734 -3.494279,-3.785461 -0.29118,0.09706 -0.67945,0.485315 -4.85315,-2.523641 -2.9119,0.873568 -1.94126,-0.970631 -2.03832,8.347429 -1.35889,2.329514 -6.01791,14.656531 -1.74714,8.05624 -1.06769,0.0971 -5.62966,13.394715 -3.78546,5.72672 -1.35889,0.97063 -3.49427,6.79442 -0.67944,7.18267 -2.13539,6.40617 1.26182,5.82378 v 0.0971 z m 35.5251,-79.68883 -0.29119,-0.873568 -0.0971,0.679442 0.38825,0.194126 z"
     style="fill:none;stroke-width:0.970631" />
  <path
     inkscape:connector-curvature="0"
     id="UT"
     data-name="Utah"
     data-id="UT"
     d="m 202.57072,183.64346 -25.04228,-3.78546 -13.97709,-2.23245 -2.71777,-0.48531 -0.58238,3.10601 -5.14434,31.44846 -10.09457,62.79983 -0.48531,3.10602 2.52364,0.38826 25.04228,3.97958 17.56843,2.52365 32.71027,4.07665 2.52364,0.29119 0.19413,-2.52364 0.7765,-7.66799 1.8442,-17.66549 5.24141,-50.56988 0.29119,-2.52365 -1.94126,-0.19412 -24.7511,-3.00896 -3.78546,-0.48531 2.42658,-18.92731 0.19412,-1.26182 z"
     style="fill:none;stroke-width:0.970631" />
  <path
     inkscape:connector-curvature="0"
     id="WY"
     data-name="Wyoming"
     data-id="WY"
     d="m 311.57261,170.83113 0.7765,-15.14184 0.97063,-20.38326 0.0971,-2.52364 -1.26182,-0.0971 -24.94522,-1.45595 -13.97709,-1.16476 -26.49823,-2.52364 -33.19559,-4.07665 -1.35888,9.51219 -0.0971,0.58237 -0.38825,3.20309 -1.74714,12.52114 -3.30015,25.23641 -0.87357,6.3091 -0.38825,3.20309 -0.19412,1.26182 -2.42658,18.92731 3.78546,0.48531 24.7511,3.00896 1.94126,0.19412 2.32951,0.29119 23.97459,2.32952 19.2185,1.55301 28.82775,1.8442 1.94126,0.0971 0.0971,-2.52364 0.48532,-10.19163 0.87357,-17.76255 0.38825,-7.57092 0.0971,-2.52364 0.0971,-2.62071 z"
     style="fill:none;stroke-width:0.970631" />
  <path
     inkscape:connector-curvature="0"
     id="AR"
     data-name="Arkansas"
     data-id="AR"
     d="m 540.64157,306.7195 -10.48282,1.55301 4.27078,-6.79442 -1.8442,-3.78546 -36.98105,3.59134 -31.25432,2.52364 -4.56197,0.29119 0.58238,2.71776 3.78546,19.60675 0.0971,4.36784 1.0677,26.40117 0.0971,4.36784 0.29119,0.0971 1.45595,1.55301 5.82378,-0.19413 0.58238,8.54155 0.19413,2.42658 3.00896,-0.29119 9.22099,-0.67944 36.5928,-3.39721 h 0.19412 l -0.0971,-2.13539 0.97063,-0.67944 -1.74713,-3.30014 3.6884,-15.5301 -1.45595,-1.74714 5.5326,-6.11498 -0.38826,-5.2414 4.07665,-6.79442 v -0.0971 l -0.19412,-0.19412 3.49427,-3.20309 -0.97063,-3.88252 2.71777,-4.27078 -0.58238,-3.97959 2.91189,-5.62966 v -0.0971 h -0.0971 z"
     style="fill:none;stroke-width:0.970631" />
  <path
     inkscape:connector-curvature="0"
     id="IA"
     data-name="Iowa"
     data-id="IA"
     d="m 511.71676,176.36373 -5.33847,-2.81483 -2.9119,-3.97959 -0.97063,-5.72672 0.77651,-2.62071 -2.81483,-3.39721 v 0 l -4.7561,0.48532 -47.75505,3.97959 -19.12144,1.06769 -4.85315,0.29119 -2.03833,0.0971 1.65008,10.77401 -1.35889,5.14435 2.13539,3.20308 v 0.67944 l 0.67944,0.0971 3.10602,9.12394 3.00896,4.75609 0.19413,5.43554 3.30014,4.56196 -0.58238,1.94126 3.00896,12.22996 v 0.29119 0 l 19.89794,-0.58238 21.25682,-1.8442 20.86857,-2.62071 4.7561,4.17372 0.19412,0.19412 0.87357,-0.38825 -0.67944,-3.78546 3.59133,-2.23245 1.45595,-9.90044 -1.45595,-0.67944 0.87357,-5.04728 4.36784,-0.87357 4.85316,-3.49427 2.13539,-6.11498 0.0971,-3.10602 -3.88252,-3.6884 -1.16476,-2.32951 -3.6884,-2.32952 0.19413,-0.48531 0.0971,-0.48532 z"
     style="fill:none;stroke-width:0.970631" />
  <path
     inkscape:connector-curvature="0"
     id="KS"
     data-name="Kansas"
     data-id="KS"
     d="m 459.10855,291.38353 -2.42658,-41.0577 -4.36784,-2.52364 -0.38825,-1.94127 -3.49428,-3.10602 3.39721,-4.17371 -1.35888,-2.42658 -2.52364,0.0971 -2.32952,-1.65008 -0.97063,-0.7765 -3.30014,0.19412 -35.81629,1.35889 -16.40367,0.38825 h -32.61321 l -13.10352,-0.19413 -3.6884,-0.0971 v 1.8442 l -0.0971,5.72672 -1.0677,51.34639 v 1.94127 l 4.17372,0.0971 22.51864,0.29119 52.70528,-0.77651 37.56342,-1.74713 3.6884,-0.29119 -0.0971,-2.52364 z"
     style="fill:none;stroke-width:0.970631" />
  <path
     inkscape:connector-curvature="0"
     id="MO"
     data-name="Missouri"
     data-id="MO"
     d="m 503.85465,221.10983 -4.7561,-4.17372 -20.86857,2.62071 -21.25682,1.8442 -19.89794,0.58238 v 0 l -0.0971,0.58238 2.42657,4.65903 2.23246,1.553 2.6207,4.65903 0.38825,0.38826 0.97063,0.7765 2.32952,1.65008 2.52364,-0.0971 1.35888,2.42658 -3.39721,4.17371 3.49428,3.10602 0.38825,1.94127 4.36784,2.52364 2.42658,41.0577 0.0971,2.52364 0.19413,2.52364 0.0971,2.52364 0.19413,2.6207 0.0971,2.52365 4.56197,-0.29119 31.25432,-2.52364 36.98105,-3.59134 1.8442,3.78546 -4.27078,6.79442 10.48282,-1.55301 h 0.0971 v -0.7765 l 0.19413,-4.46491 1.94126,-2.42658 -0.58238,-2.71776 -0.0971,-0.0971 -0.0971,-0.0971 0.38825,-1.26182 0.58238,0.19413 0.29119,0.7765 -0.0971,0.29119 v 0.0971 0.77651 l 0.38826,0.0971 0.7765,-0.97063 v -0.0971 l 0.0971,-0.29119 2.52364,-1.55301 0.38826,-0.19413 0.87357,-7.95917 -0.19413,-0.38826 -0.29119,-0.0971 -6.89148,-5.62966 1.06769,-2.03833 -1.94126,-5.53259 -3.49427,-2.71777 -6.60029,-2.9119 -4.17372,-3.3972 0.48532,-6.98855 1.26182,-6.50323 -6.98855,0.38825 -2.13539,-2.23245 -0.97063,-4.4649 -11.06519,-9.31806 -3.10602,-8.63862 0.7765,-4.27078 v 0 l -0.19412,-0.19412 z"
     style="fill:none;stroke-width:0.970631" />
  <path
     inkscape:connector-curvature="0"
     id="NE"
     data-name="Nebraska"
     data-id="NE"
     d="m 422.51575,183.35227 -3.00895,-3.00895 -10.57988,-3.10602 -3.39721,-0.0971 -5.14435,1.45594 -6.11498,-3.88252 -19.12143,0.19412 -27.85712,-0.29119 -32.90439,-1.06769 -2.9119,-0.0971 -0.0971,2.52364 -0.38825,7.57092 -0.87357,17.76255 -0.48532,10.19163 -0.0971,2.52364 2.32952,0.0971 23.6834,0.87357 4.65903,0.19413 -0.38826,19.02437 -0.0971,1.26182 3.6884,0.0971 13.10352,0.19413 h 32.61321 l 16.40367,-0.38825 35.81629,-1.35889 3.30014,-0.19412 -0.38825,-0.38826 -2.6207,-4.65903 -2.23246,-1.553 -2.42657,-4.65903 0.0971,-0.58238 v -0.29119 l -3.00896,-12.22996 0.58238,-1.94126 -3.30014,-4.56196 -0.19413,-5.43554 -3.00896,-4.75609 -3.10602,-9.12394 -0.67944,-0.0971 -1.8442,-0.19413 z"
     style="fill:none;stroke-width:0.970631" />
  <path
     inkscape:connector-curvature="0"
     id="OK"
     data-name="Oklahoma"
     data-id="OK"
     d="m 459.69093,301.57515 -0.19413,-2.6207 -0.0971,-2.52364 -0.19413,-2.52364 -3.6884,0.29119 -37.56342,1.74713 -52.70528,0.77651 -22.51864,-0.29119 -4.17372,-0.0971 h -1.55301 l -6.11497,-0.19413 -1.94127,-0.0971 -4.07665,-0.0971 -1.94126,-0.0971 -0.0971,2.52364 -0.0971,2.52364 -0.0971,2.52364 -0.0971,2.62071 h 0.58238 l 23.48927,0.58238 24.84816,0.29119 0.29119,33.19558 1.74714,5.82379 3.88252,3.6884 4.17372,0.19413 0.87356,-1.74714 5.72673,5.24141 7.47386,0.7765 1.35888,1.55301 2.71777,-1.26182 6.79442,3.20309 v 1.84419 l 2.52364,-0.0971 2.6207,-2.23245 4.85316,3.10602 4.56197,1.65007 3.10601,-4.27077 9.90044,4.65902 3.6884,-3.00895 3.00896,-1.16476 2.42658,0.58238 9.12393,-2.6207 4.85316,2.03832 4.36784,2.81483 3.78546,0.67944 h 0.0971 l -0.0971,-4.36784 -1.0677,-26.40117 -0.0971,-4.36784 -3.78546,-19.60675 -0.58238,-2.71776 -0.0971,-2.52365 z"
     style="fill:none;stroke-width:0.970631" />
  <path
     inkscape:connector-curvature="0"
     id="SD"
     data-name="South Dakota"
     data-id="SD"
     d="m 417.08022,114.24333 -16.40367,0.48532 -39.50469,0.29119 -42.80484,-1.16476 -3.78546,-0.19413 -0.0971,2.23246 -0.38825,8.83274 -0.29119,6.69736 -0.0971,1.35888 h -0.29119 l -0.0971,2.52364 -0.97063,20.38326 -0.7765,15.14184 -0.0971,2.62071 2.9119,0.0971 32.90439,1.06769 27.85712,0.29119 19.12143,-0.19412 6.11498,3.88252 5.14435,-1.45594 3.39721,0.0971 10.57988,3.10602 3.00895,3.00895 1.8442,0.19413 v -0.67944 l -2.13539,-3.20308 1.35889,-5.14435 -1.65008,-10.77401 2.03833,-0.0971 -0.19413,-4.4649 -4.85315,-34.16622 -2.52364,-4.27078 3.88252,-6.40616 0.0971,-0.29119 -3.30014,0.19412 z"
     style="fill:none;stroke-width:0.970631" />
  <path
     inkscape:connector-curvature="0"
     id="LA"
     data-name="Louisiana"
     data-id="LA"
     d="m 539.18562,447.94634 -1.26182,0.29119 -0.58238,0.58238 z m 4.07665,0 -0.67944,-0.29119 -0.19412,0.29119 z m 2.32952,-0.77651 h -0.67944 l -0.38826,0.48532 z m -1.16476,-0.67944 -0.19413,-0.29119 -0.0971,0.29119 h 0.29119 z m 7.76505,-5.14434 -0.29119,0.19412 h 0.48532 z m 13.58884,-5.72673 0.58238,-0.7765 -0.67945,0.87357 0.0971,-0.0971 z m 1.94126,-2.52364 -0.19413,0.0971 v 0.0971 l 0.19413,-0.19413 z m -49.89044,8.54156 1.45594,-1.8442 -3.97959,-1.0677 -1.74713,1.45595 z m 40.28119,-8.44449 -0.38825,-0.38826 -0.0971,0.19413 0.48532,0.19413 z m 1.06769,-1.74714 -0.97063,-0.29119 0.29119,0.97063 z m 7.95918,-1.65007 v -0.29119 0.0971 0.19413 z m 1.94126,-1.26182 -0.0971,-0.0971 0.0971,0.19413 v -0.0971 z m -0.7765,-0.19413 -0.19413,-0.0971 -0.0971,0.29119 0.29119,-0.19413 z m -6.79442,-0.29119 0.87357,-0.29119 v -0.29119 z m 0.48532,-0.48532 0.48531,-0.48531 -0.0971,-0.0971 -0.38825,0.58237 z m -3.39721,-3.59133 -0.19413,0.19413 h 0.0971 l 0.0971,-0.19413 z m -35.8163,-54.35535 h -0.19412 l -36.5928,3.39721 -9.22099,0.67944 -3.00896,0.29119 0.0971,2.32952 1.94126,18.73318 3.20309,4.4649 0.0971,2.62071 3.10602,5.43553 2.52364,7.95918 -0.87357,4.4649 -0.67944,11.0652 -1.45594,3.59133 h 0.19412 l 0.29119,2.52364 -1.65007,2.32952 12.03582,-1.35889 9.41513,2.62071 6.69735,0.87357 3.39721,-2.42658 -1.8442,-2.42658 6.21204,-1.94126 -0.19412,2.13539 3.20308,-0.77651 2.6207,4.07665 2.23245,-0.7765 5.82379,3.97959 -3.59133,1.26182 8.25036,2.42657 h 3.10602 l 1.8442,-2.23245 3.97959,-2.13539 2.81483,4.07666 1.94126,-3.6884 -0.58238,-5.82379 5.24141,2.03833 0.58238,1.74713 6.21204,0.77651 3.10602,2.52364 -0.38825,2.03832 4.36784,-4.07665 -1.65008,-2.13539 -7.27973,-1.8442 -2.71777,-1.55301 -0.0971,-2.91189 3.00896,0.38825 2.32951,-4.75609 -3.00896,-4.17371 -1.65007,3.97958 -3.78546,-0.67944 2.6207,-4.27078 -1.74713,-0.48531 -4.27078,3.00896 -6.11498,0.38825 -1.74713,-1.35889 2.81483,-4.95021 3.30014,-0.0971 5.62967,1.8442 4.07665,0.38825 v 0 l -2.23245,-2.81483 -4.27078,-8.34742 1.16476,-4.65903 -33.48678,3.68839 1.26182,-1.26182 -1.35888,-3.49427 2.03832,-3.00896 1.16476,-7.57092 7.3768,-12.6182 -3.59134,-4.36784 0.19413,-3.20309 -2.23246,-5.24141 v -0.67944 z"
     style="fill:none;stroke-width:0.970631" />
  <path
     inkscape:connector-curvature="0"
     id="TX"
     data-name="Texas"
     data-id="TX"
     d="m 424.16582,515.59933 -4.65902,-17.56842 v 3.30015 z m -1.06769,-30.86607 -3.30015,6.21204 -0.38825,2.03833 z m 2.6207,-4.56196 3.10602,-4.07666 -2.23245,1.35889 z m 10.96814,-9.90044 -7.27974,3.78546 2.03833,-0.38825 z m 0.97063,-1.35889 2.03832,-1.65007 -0.7765,0.19413 z m -115.11686,-162.87191 -0.67944,-0.0971 -3.30015,91.0452 -19.2185,-0.87357 -30.76901,-1.74713 -12.32701,-0.87357 2.42658,4.75609 0.0971,0.0971 10.48282,10.48281 6.01791,7.08561 7.95917,5.92085 5.62967,10.28869 2.13538,10.77401 4.56197,3.00895 3.59134,3.97959 5.14434,1.8442 7.47386,4.75609 3.39721,1.26183 4.65903,-4.65903 1.45595,-4.95022 2.42658,-4.7561 7.57092,-3.00895 2.91189,1.45594 8.44449,0.67945 7.66799,4.75609 5.24141,0.97063 -1.45595,2.71777 3.00896,1.94126 2.81483,3.39721 0.58238,3.59133 1.8442,2.42658 4.27077,10.28869 4.27078,3.59134 3.30015,5.43553 4.17371,4.27078 1.8442,0.58238 1.55301,11.06519 4.56197,2.52365 0.19412,3.49427 1.16476,-0.29119 7.95918,9.70631 3.97959,0.87357 5.04728,3.00896 h 7.76505 l 5.62966,3.10601 6.69735,-1.45594 -3.00895,-2.81483 -2.71777,-8.1533 -1.06769,-7.08561 -1.55301,-2.32952 0.67944,-4.75609 -2.03833,-0.19413 -2.71777,-4.4649 3.10602,3.30015 3.59134,-1.26182 1.94126,-5.14435 -3.88252,-5.24141 5.82378,0.67944 2.71777,-4.17371 -0.38825,-1.45595 2.42658,-3.20308 -0.58238,2.81483 2.71777,-2.13539 -1.0677,-3.78546 3.49427,1.8442 4.46491,-2.52364 -4.36784,-4.56197 2.71776,1.0677 5.04729,0.29119 6.60029,-1.45595 7.3768,-4.95022 4.4649,-3.6884 0.67944,-2.71777 2.71777,-2.81483 -1.45595,-4.65903 0.29119,-2.91189 4.85316,-2.13539 -0.38826,5.14435 h 2.9119 l -3.20308,2.71776 12.90939,-6.79441 2.13539,-0.0971 1.35888,-6.21204 h 0.38826 l 1.45594,-3.59133 0.67944,-11.0652 0.87357,-4.4649 -2.52364,-7.95918 -3.10602,-5.43553 -0.0971,-2.62071 -3.20309,-4.4649 -1.94126,-18.73318 -0.0971,-2.32952 -0.19413,-2.42658 -0.58238,-8.54155 -5.82378,0.19413 -1.45595,-1.55301 -0.29119,-0.0971 h -0.0971 l -3.78546,-0.67944 -4.36784,-2.81483 -4.85316,-2.03832 -9.12393,2.6207 -2.42658,-0.58238 -3.00896,1.16476 -3.6884,3.00895 -9.90044,-4.65902 -3.10601,4.27077 -4.56197,-1.65007 -4.85316,-3.10602 -2.6207,2.23245 -2.52364,0.0971 v -1.84419 l -6.79442,-3.20309 -2.71777,1.26182 -1.35888,-1.55301 -7.47386,-0.7765 -5.72673,-5.24141 -0.87356,1.74714 -4.17372,-0.19413 -3.88252,-3.6884 -1.74714,-5.82379 -0.29119,-33.19558 -24.84816,-0.29119 -23.48927,-0.58238 h -0.58238 z"
     style="fill:none;stroke-width:0.970631" />
  <path
     inkscape:connector-curvature="0"
     id="CT"
     data-name="Connecticut"
     data-id="CT"
     d="m 787.18189,122.00838 -13.97709,5.33847 -0.19412,-0.48531 -7.86211,2.32951 -1.74714,0.48532 0.19413,0.97063 3.68839,14.26828 1.16476,1.45595 -2.52364,3.10602 1.74714,1.65007 v 0 l 5.62966,-5.43554 3.00895,-4.17371 0.58238,1.16476 14.17122,-6.30911 0.29119,-0.29118 -0.0971,-2.32952 -0.58237,-2.03833 -3.00896,-8.44449 -0.38825,-1.06769 -0.0971,-0.19413 z"
     style="fill:none;stroke-width:0.970631" />
  <path
     inkscape:connector-curvature="0"
     id="NH"
     data-name="New Hampshire"
     data-id="NH"
     d="m 774.07837,54.646573 -1.26182,1.55301 -1.45594,-0.29119 -0.77651,6.406166 v 0.09706 l 2.32952,8.735681 -0.19413,1.747136 -4.17372,5.532598 1.0677,5.047281 v 6.30911 l -0.77651,5.82378 4.36784,15.918365 v 0 0 l 3.97959,-1.26182 12.22996,-4.07666 5.53259,-6.01791 v 0 -1.553015 l 0.29119,-2.52364 -0.67944,0.29119 -0.0971,-0.58238 -6.11498,-7.47386 -0.19413,-0.67944 -14.07415,-33.001465 v 0 z"
     style="fill:none;stroke-width:0.970631" />
  <path
     inkscape:connector-curvature="0"
     id="RI"
     data-name="Rhode Island"
     data-id="RI"
     d="m 796.69408,130.74406 -0.0971,-2.03832 -0.29119,0.7765 0.38825,1.26182 z m 1.94126,-1.55301 -1.26182,-2.42657 -0.0971,2.52364 1.35888,-0.0971 z m -0.58238,-3.00895 0.67944,1.74713 0.87357,1.55301 0.58238,-1.16475 -0.87357,-1.65008 -0.29119,-1.16475 h -0.97063 z m -10.774,-3.97959 0.38825,1.06769 3.00896,8.44449 0.58237,2.03833 0.0971,2.32952 0.19412,-0.29119 4.65903,-3.6884 -0.87356,-6.60029 1.94126,-0.38826 v 0 l -4.27078,-5.14434 -4.4649,1.74713 -1.26182,0.48532 z"
     style="fill:none;stroke-width:0.970631" />
  <path
     inkscape:connector-curvature="0"
     id="VT"
     data-name="Vermont"
     data-id="VT"
     d="m 773.2048,111.52557 -4.36784,-15.918365 0.77651,-5.82378 v -6.30911 l -1.0677,-5.047278 4.17372,-5.532598 0.19413,-1.747136 -2.32952,-8.735681 -1.26182,0.485316 -5.33847,1.941262 -5.24141,2.038326 -12.03583,4.36784 -0.67944,0.194126 4.36784,10.191633 1.45595,9.60924 5.14434,8.05624 4.85316,15.918355 0.19413,-0.0971 0.7765,-0.29119 2.23245,-0.67944 1.94126,-0.67944 5.5326,-1.65007 0.67944,-0.29119 v 0 z"
     style="fill:none;stroke-width:0.970631" />
  <path
     inkscape:connector-curvature="0"
     id="AL"
     data-name="Alabama"
     data-id="AL"
     d="m 568.49868,323.51142 0.38826,0.77651 1.35888,0.87356 0.58238,39.79588 0.19413,21.8392 4.95021,29.89545 0.38826,-0.0971 4.36784,0.87357 1.16475,-8.63862 1.94127,4.85316 3.30014,3.00896 6.30911,-3.6884 -0.67945,-0.58238 0.19413,0.0971 -4.36784,-9.9975 41.93127,-6.79442 2.81483,-0.48531 v -0.0971 l -2.62071,-4.95022 -0.19412,-7.0856 -2.13539,-3.88253 1.06769,-7.57092 1.74714,-1.94126 -7.18267,-12.81234 -13.00646,-39.60175 -0.0971,-0.19413 -2.9119,0.48532 -15.5301,2.52364 -7.76504,0.97063 -16.30661,2.23245 0.0971,0.19413 z"
     style="fill:none;stroke-width:0.970631" />
  <path
     inkscape:connector-curvature="0"
     id="FL"
     data-name="Florida"
     data-id="FL"
     d="m 704.87237,513.94926 h -0.19413 l 0.0971,0.0971 0.0971,-0.0971 z m -0.87357,-0.0971 v 0.0971 h 0.0971 z m 0.19413,-0.0971 v -0.0971 z m -13.20059,1.45594 v 0 0.0971 z m -0.19412,0.0971 v -0.0971 z m 0.0971,-0.0971 z m -0.97063,0.0971 h -0.0971 v 0.0971 z m 27.56592,-6.11498 h -0.0971 l 0.0971,0.19412 z m 2.62071,-0.67944 v -0.19413 l -0.19413,0.29119 0.19413,-0.0971 z m -0.97063,-0.19413 -0.38826,-0.38825 -0.0971,0.0971 0.48532,0.29119 z m -0.29119,0.77651 -1.16476,-1.45595 0.67944,1.26182 z m 9.22099,-5.72673 v 0.38825 l 0.19413,-0.19412 z m 1.35889,-0.97063 0.29119,-0.48532 -0.38826,0.38826 0.0971,0.0971 z m 0.29119,-0.97063 h -0.0971 v 0.0971 z m -1.74714,-0.29119 -0.0971,-0.0971 z m 0.87357,-1.45595 -0.0971,-0.0971 v 0.19413 l 0.0971,-0.0971 z m -2.62071,-0.0971 -0.0971,-0.0971 z m 3.30015,-2.23245 -0.19413,0.0971 0.29119,0.0971 -0.0971,-0.19412 z m 0.38825,0 -0.19412,-0.19413 0.0971,0.29119 0.0971,-0.0971 z m -0.67944,-0.19413 -0.0971,-0.0971 v 0.19412 l 0.0971,-0.0971 z m 3.59134,-0.67944 v -0.0971 l -0.19413,0.38825 0.19413,-0.29119 z m -4.07665,0.38825 h -0.19413 l 0.19413,0.0971 z m 2.03832,-1.16476 h -0.29119 l -0.0971,0.0971 0.38825,-0.0971 z m 0.77651,-0.48531 v 0 h -0.0971 z m -8.15331,0.38825 v -0.19412 l -0.0971,0.19412 z m 0.87357,-0.29119 h -0.29119 l 0.29119,0.58238 z m -2.32951,0.0971 v -0.58238 l -0.48532,0.0971 0.48532,0.48532 z m -1.35889,-0.97064 0.48532,0.48532 v -0.19413 z m 14.26828,0.58238 -1.74713,0.77651 0.58237,0.0971 1.16476,-0.87357 z m -13.58883,-0.87356 h -0.58238 v 0.19412 z m 15.33597,-4.85316 0.0971,-0.48532 0.0971,-1.26182 -0.19412,1.74714 z m 0.0971,-5.43554 -0.38825,-0.97063 -0.19413,0.38826 z m -22.42158,2.42658 -0.19413,0.29119 0.48532,0.0971 -0.29119,-0.38825 z m -1.8442,-0.87357 -0.87357,0.29119 0.67945,0.0971 0.19412,-0.38826 z m -1.94126,0.19413 v -0.29119 l -0.0971,0.0971 0.0971,0.19413 z m -2.03833,-0.0971 -0.58238,0.38825 0.77651,0.38825 z m 2.71777,0.0971 -0.0971,-0.29119 -0.48532,-0.0971 0.58238,0.38825 z m -12.71527,-9.51219 -0.58238,0.29119 1.16476,0.38826 z m -2.32951,-3.10602 -0.77651,-1.16475 0.29119,0.87357 z m 3.00895,1.94127 -1.35888,-3.10602 -0.97063,-0.29119 z m -3.88252,-3.88253 -0.29119,-0.7765 -0.19413,-0.48532 z m -8.05624,-10.774 -1.74714,-1.26182 0.67945,0.67944 z m 43.6784,-6.50323 -7.0856,-11.8417 h -0.38826 z m -49.01687,-18.92731 -0.29119,-0.0971 0.29119,0.19412 v -0.0971 z m -0.58238,-0.67944 -0.0971,0.0971 0.0971,0.0971 v -0.19412 z m -0.67944,-0.97063 v -0.0971 l -0.0971,0.0971 z m 0.38825,-0.38826 0.29119,0.19413 v -0.19413 z m 0.58238,-0.38825 -0.38825,0.0971 h 0.0971 l 0.29119,-0.0971 z m -0.67944,-0.0971 -0.29119,-0.29119 0.0971,0.0971 0.19413,0.19413 z m -0.67944,-1.0677 h -0.19413 l 0.29119,0.0971 -0.0971,-0.0971 z m 0.67944,-1.16475 h -0.38826 l -0.0971,0.0971 0.48532,-0.0971 z m 0.38825,0.19412 -0.48532,-0.48531 0.19413,0.0971 0.29119,0.38825 z m -3.6884,-4.17371 -0.19413,-0.0971 v 0.0971 z m -4.17371,0 -0.29119,-0.38825 0.0971,0.48531 0.19413,-0.0971 z m -35.33098,-3.20309 2.91189,-2.23245 -3.20308,2.13539 0.29119,0.0971 z m 5.82379,-4.65902 0.29119,-0.29119 -1.16476,0.48531 z m -36.88399,-6.50323 -10.57988,3.39721 5.82379,-1.65008 z m 26.30411,-16.50073 -2.81483,0.48531 -41.93127,6.79442 4.36784,9.9975 0.29119,0.0971 -1.06769,3.97959 3.10602,-1.35888 3.3972,-3.00896 5.82379,-0.19412 6.69736,-2.42658 4.56196,0.67944 -1.06769,1.65007 8.34743,2.81483 7.18267,3.49428 1.65007,3.88252 5.33847,-1.16476 12.61821,-10.28869 4.65903,0.19413 19.02437,14.36534 3.88252,-0.77651 4.07666,5.43554 0.7765,8.63862 -1.26182,5.43553 0.58238,2.71777 3.39721,6.79442 -1.55301,-5.33847 4.36784,-0.0971 0.38825,3.88253 -2.32951,6.01791 8.05624,11.0652 3.00895,0.0971 -2.52364,-3.39721 3.10602,0.38825 1.8442,-1.16475 -0.7765,6.21204 4.17371,3.30014 2.81483,7.57093 3.78546,2.32951 4.85316,1.26182 6.69735,8.54156 3.49428,1.84419 -4.65903,0.29119 2.13538,2.42658 7.66799,-2.52364 3.78546,-2.13539 3.49427,-12.22995 -1.74713,-19.02437 -0.38825,-1.94127 -9.31806,-15.53009 -7.95918,-11.25933 -4.4649,-9.22099 3.78546,3.20308 0.7765,-0.58238 1.65008,8.05624 4.27077,6.11498 -4.17371,-8.1533 0.19413,-3.88253 -12.52115,-15.23891 -3.00895,-4.75609 -3.97959,-8.05624 -2.71777,-6.79442 -2.13539,-2.42658 -0.48531,-3.10602 -0.0971,-0.0971 -6.69735,-0.38825 -2.62071,2.03832 -1.45594,7.47386 -1.35889,-3.49427 -45.81379,5.72672 -3.30014,-5.14434 0.0971,-0.0971 z"
     style="fill:none;stroke-width:0.970631" />
  <path
     inkscape:connector-curvature="0"
     id="GA"
     data-name="Georgia"
     data-id="GA"
     d="m 696.03962,374.76075 -0.0971,-2.9119 -0.67944,2.52364 0.7765,0.38826 z m 1.0677,-4.46491 -0.38825,-2.23245 -0.29119,1.35889 z m -45.42554,-61.14976 -1.26182,0.29119 -3.6884,0.7765 -13.58884,2.81483 -1.26182,0.29119 -1.35888,0.19413 -7.57093,1.45595 -2.03832,0.38825 -8.25037,1.55301 -1.74713,0.19412 0.0971,0.19413 13.00646,39.60175 7.18267,12.81234 -1.74714,1.94126 -1.06769,7.57092 2.13539,3.88253 0.19412,7.0856 2.62071,4.95022 v 0.0971 l -0.0971,0.0971 3.30014,5.14434 45.81379,-5.72672 1.35889,3.49427 1.45594,-7.47386 2.62071,-2.03832 6.69735,0.38825 v 0 l -0.58237,-10.48282 1.26182,-2.23245 -0.67945,-4.17371 1.35889,-3.97959 2.03832,-2.23245 -1.45594,-1.35889 3.39721,-4.17371 h -0.0971 l -5.82378,-5.43554 -7.95918,-11.35638 -4.36784,-2.03833 -18.73318,-15.72422 -4.56197,-5.82379 -8.83274,-3.6884 -0.48532,-1.94126 2.71777,-5.33847 v 0 z"
     style="fill:none;stroke-width:0.970631" />
  <path
     inkscape:connector-curvature="0"
     id="MS"
     data-name="Mississippi"
     data-id="MS"
     d="m 566.94567,421.44811 -0.48531,0.0971 v 0.0971 l 0.48531,-0.19412 z m 9.02687,-1.16476 h -1.35888 l 1.26182,0.0971 0.0971,-0.0971 z m -11.25932,0.97063 -0.38825,0.38825 0.0971,0.0971 0.29119,-0.48532 z m 9.12394,-0.7765 h -3.6884 l 3.49427,0.0971 z m -40.47533,-92.50116 v 0.0971 l -4.07665,6.79442 0.38826,5.2414 -5.5326,6.11498 1.45595,1.74714 -3.6884,15.5301 1.74713,3.30014 -0.97063,0.67944 0.0971,2.13539 v 0.67944 l 2.23246,5.24141 -0.19413,3.20309 3.59134,4.36784 -7.3768,12.6182 -1.16476,7.57092 -2.03832,3.00896 1.35888,3.49427 -1.26182,1.26182 33.48678,-3.68839 -1.16476,4.65903 4.27078,8.34742 2.23245,2.81483 v -0.0971 l 3.59133,-4.07665 7.57093,-1.65007 6.98854,0.7765 1.06769,-1.35888 v -0.0971 l -4.95021,-29.89545 -0.19413,-21.8392 -0.58238,-39.79588 -1.35888,-0.87356 -0.38826,-0.77651 h -0.19412 l -4.85316,0.67944 -8.54155,1.16476 -19.41263,2.42658 -2.13539,0.19412 z"
     style="fill:none;stroke-width:0.970631" />
  <path
     inkscape:connector-curvature="0"
     id="SC"
     data-name="South Carolina"
     data-id="SC"
     d="m 651.68178,309.14608 v 0 l -2.71777,5.33847 0.48532,1.94126 8.83274,3.6884 4.56197,5.82379 18.73318,15.72422 4.36784,2.03833 7.95918,11.35638 5.82378,5.43554 v 0 l 0.97063,-4.4649 -1.55301,-4.27078 4.17372,3.10602 2.32951,-1.8442 -3.97959,-3.30015 4.85316,-0.29119 7.57092,-6.40616 -0.87356,-1.65008 4.65903,-3.59133 -0.48532,-1.74714 3.39721,-2.13539 0.19413,-4.95022 5.33847,-9.90043 3.59133,-4.56197 0.38826,-0.19413 -21.64508,-13.6859 -8.05624,1.55301 -10.96813,-0.38825 -5.43554,-2.81483 -32.22495,10.19163 z"
     style="fill:none;stroke-width:0.970631" />
  <path
     inkscape:connector-curvature="0"
     id="IL"
     data-name="Illinois"
     data-id="IL"
     d="m 511.6197,176.84905 -0.19413,0.48531 3.6884,2.32952 1.16476,2.32951 3.88252,3.6884 -0.0971,3.10602 -2.13539,6.11498 -4.85316,3.49427 -4.36784,0.87357 -0.87357,5.04728 1.45595,0.67944 -1.45595,9.90044 -3.59133,2.23245 0.67944,3.78546 -0.87357,0.38825 v 0 l -0.7765,4.27078 3.10602,8.63862 11.06519,9.31806 0.97063,4.4649 2.13539,2.23245 6.98855,-0.38825 -1.26182,6.50323 -0.48532,6.98855 4.17372,3.3972 6.60029,2.9119 3.49427,2.71777 1.94126,5.53259 -1.06769,2.03833 6.89148,5.62966 0.29119,0.0971 -0.58238,-0.58238 1.94126,-4.56196 7.47386,2.03832 1.8442,-2.13539 -1.45594,-4.27077 6.11497,-3.59134 -1.65007,-2.32951 1.45595,-3.30015 v -0.29119 l -0.38826,-0.0971 0.0971,-8.63862 2.13539,-1.55301 3.68839,-8.63862 -0.7765,-3.78546 -2.42658,-4.56196 1.35888,-5.14435 -6.79441,-47.85212 -0.97064,-1.06769 -2.52364,-5.72673 -2.03832,-2.13539 -0.87357,-5.62966 v -0.19412 l -13.10352,1.8442 -7.86211,0.97063 -21.15976,2.42658 v 0 z"
     style="fill:none;stroke-width:0.970631" />
  <path
     inkscape:connector-curvature="0"
     id="IN"
     data-name="Indiana"
     data-id="IN"
     d="m 600.52951,178.88737 -14.85065,2.62071 -3.39721,0.67944 -12.03583,1.94126 -2.52364,2.03833 -3.78546,1.74713 -1.45595,-0.0971 -1.74714,-0.87357 -0.58237,-0.58238 6.79441,47.85212 -1.35888,5.14435 2.42658,4.56196 0.7765,3.78546 -3.68839,8.63862 -2.13539,1.55301 -0.0971,8.63862 0.38826,0.0971 0.38825,-0.0971 1.45595,-2.71777 h 3.59133 l 4.36784,-1.45595 5.43554,2.03833 0.58237,-2.23245 3.10602,-2.32952 4.65903,0.67945 2.52365,-4.95022 6.89148,0.58237 -0.0971,-2.81483 6.11498,-8.05623 -0.97063,-3.6884 4.27078,-0.0971 5.2414,-4.17371 -1.26182,-4.75609 0.19413,-0.19413 -0.19413,-1.65007 -5.82378,-34.36035 -2.62071,-14.65653 -0.29119,-1.55301 -0.29119,-1.26182 z"
     style="fill:none;stroke-width:0.970631" />
  <path
     inkscape:connector-curvature="0"
     id="KY"
     data-name="Kentucky"
     data-id="KY"
     d="m 543.35934,295.84843 -0.29119,-0.7765 -0.58238,-0.19413 -0.38825,1.26182 0.0971,0.0971 1.06769,-0.0971 0.0971,-0.29119 z m 66.39117,-63.47928 -0.19413,0.19413 1.26182,4.75609 -5.2414,4.17371 -4.27078,0.0971 0.97063,3.6884 -6.11498,8.05623 0.0971,2.81483 -6.89148,-0.58237 -2.52365,4.95022 -4.65903,-0.67945 -3.10602,2.32952 -0.58237,2.23245 -5.43554,-2.03833 -4.36784,1.45595 h -3.59133 l -1.45595,2.71777 -0.38825,0.0971 v 0.29119 l -1.45595,3.30015 1.65007,2.32951 -6.11497,3.59134 1.45594,4.27077 -1.8442,2.13539 -7.47386,-2.03832 -1.94126,4.56196 0.58238,0.58238 0.19413,0.38826 -0.87357,7.95917 -0.38826,0.19413 -2.52364,1.55301 -0.0971,0.29119 2.81483,-0.38826 19.60675,-2.6207 -0.97063,-3.88252 3.30015,-0.0971 39.50469,-5.24141 27.76005,-4.65903 0.38825,-0.29119 0.67944,-0.7765 7.27974,-3.88252 5.62966,-7.3768 0.7765,-2.52364 3.6884,-2.9119 4.65903,-5.92085 0.67944,-0.97063 -0.29119,-0.0971 h -2.42657 l -3.10602,-1.74714 -5.5326,-6.69735 -1.94126,-6.79442 v -0.19413 l -0.19413,-0.19412 -4.07665,-2.32952 -1.8442,-3.10602 -3.6884,3.59134 -2.32951,0.58238 -2.9119,-1.16476 -2.52364,1.94126 -5.24141,-2.32951 -1.35888,0.58237 -4.95022,-4.27077 -2.52364,-1.26182 -4.75609,0.58238 -0.77651,0.7765 z"
     style="fill:none;stroke-width:0.970631" />
  <path
     inkscape:connector-curvature="0"
     id="NC"
     data-name="North Carolina"
     data-id="NC"
     d="m 740.39747,310.89321 -1.06769,1.0677 0.19412,0.19413 z m 0.7765,-5.62966 -0.48531,0.77651 0.19413,0.7765 z m 5.82379,-9.02687 -1.45594,0.97063 -0.77651,1.16476 z m 12.52114,-6.11497 -0.58237,-0.38826 -1.26182,-0.0971 1.84419,0.48532 z m -2.6207,-0.58238 h -0.87357 l -1.45594,0.7765 z m 3.00896,1.06769 2.81483,-6.98854 -1.94126,2.91189 z m 4.17371,-9.22099 1.26182,-1.8442 h -0.67944 z m 8.1533,-7.57093 -2.13539,-10.774 1.8442,5.62966 z m -11.8417,-24.55697 -0.19412,0.0971 -0.29119,0.0971 v 0 h 0.0971 l 5.33847,9.02687 4.17372,4.17371 -9.12394,-13.39471 v 0 z m -1.74713,0.58238 -0.77651,0.19413 v 0 l 0.19413,0.0971 h 1.65007 l -0.19413,-0.58238 v 0 l -0.29118,0.0971 h -0.29119 v 0 0.19412 l -0.19413,0.0971 -0.0971,-0.0971 v 0 z m -89.78339,22.13039 -0.48532,1.45595 0.0971,4.17371 -1.0677,-0.0971 -2.52364,5.14435 -2.81483,0.29119 -5.24141,5.14434 -2.32951,-0.87357 -3.00896,4.46491 -7.95917,7.18267 -3.88253,0.97063 -4.07665,3.78546 -0.19413,2.52364 -3.59133,1.94126 0.0971,4.27078 v 0.97063 l 1.26182,-0.29119 13.58884,-2.81483 3.6884,-0.7765 1.26182,-0.29119 h 0.29119 l 32.22495,-10.19163 5.43554,2.81483 10.96813,0.38825 8.05624,-1.55301 21.64508,13.6859 0.38825,-0.29119 9.9975,-4.07665 0.0971,-5.33847 3.59134,-6.50323 3.88252,-3.6884 8.05624,-5.33847 1.0677,-1.94126 2.13538,0.97063 0.97064,-6.40616 -1.16476,2.23245 -4.07665,1.35888 -3.88253,0.0971 4.7561,-3.49427 -1.45595,-1.55301 1.65007,-3.49427 -9.12393,-1.45595 -0.38825,-0.48531 7.76505,-1.45595 2.52364,1.26182 3.20308,-0.29119 2.6207,-1.94126 1.94127,-3.78546 1.74713,-0.48532 -0.29119,-5.33847 -2.23245,-2.13539 -2.23245,2.03833 0.48531,5.14434 -1.65007,-6.3091 -1.26182,-0.29119 -9.60925,3.97959 4.27078,-4.17372 0.19413,-1.65007 4.4649,-1.06769 1.26182,-3.30015 3.00896,1.74714 -3.20309,-4.7561 -2.23245,-1.94126 v 0 l -38.82525,11.0652 -24.75109,6.3091 -25.04229,4.65903 -0.0971,-0.19413 z"
     style="fill:none;stroke-width:0.970631" />
  <path
     inkscape:connector-curvature="0"
     id="OH"
     data-name="Ohio"
     data-id="OH"
     d="m 668.37663,185.29354 -2.42657,-10.48282 -0.48532,-2.13539 -2.71777,-11.93876 -3.49427,2.23245 -7.47386,5.72672 -4.85315,5.92085 -3.78547,0.58238 -6.98854,3.97959 -3.88253,-2.32951 -11.74463,-1.35889 v 0 l -6.21204,1.55301 -6.11498,1.45595 -6.40617,1.35888 -0.97063,0.29119 0.29119,1.55301 2.62071,14.65653 5.82378,34.36035 0.19413,1.65007 0.77651,-0.7765 4.75609,-0.58238 2.52364,1.26182 4.95022,4.27077 1.35888,-0.58237 5.24141,2.32951 2.52364,-1.94126 2.9119,1.16476 2.32951,-0.58238 3.6884,-3.59134 1.8442,3.10602 4.07665,2.32952 0.19413,0.19412 v 0 l 4.17371,-2.03832 1.45595,-3.20309 -1.16476,-3.30014 3.30014,-5.04728 2.42658,-0.38826 -0.29119,-4.27077 3.97959,-5.43554 0.67944,0.77651 3.59134,-2.71777 3.10602,-4.65903 0.48531,-21.25682 0.19413,-0.0971 -0.48532,-2.03832 z"
     style="fill:none;stroke-width:0.970631" />
  <path
     inkscape:connector-curvature="0"
     id="TN"
     data-name="Tennessee"
     data-id="TN"
     d="m 636.44287,279.15357 -27.76005,4.65903 -39.50469,5.24141 -3.30015,0.0971 0.97063,3.88252 -19.60675,2.6207 -2.81483,0.38826 v 0.0971 l -0.7765,0.97063 -0.38826,-0.0971 v -0.77651 -0.0971 l -1.06769,0.0971 0.0971,0.0971 0.58238,2.71776 -1.94126,2.42658 -0.19413,4.46491 v 0.7765 0.0971 l -2.91189,5.62966 0.58238,3.97959 -2.71777,4.27078 0.97063,3.88252 -3.49427,3.20309 0.19412,0.19412 2.13539,-0.19412 19.41263,-2.42658 8.54155,-1.16476 4.85316,-0.67944 h 0.19412 l -0.0971,-0.19413 16.30661,-2.23245 7.76504,-0.97063 15.5301,-2.52364 2.9119,-0.48532 1.74713,-0.19412 8.25037,-1.55301 2.03832,-0.38825 7.57093,-1.45595 1.35888,-0.19413 v -0.97063 l -0.0971,-4.27078 3.59133,-1.94126 0.19413,-2.52364 4.07665,-3.78546 3.88253,-0.97063 7.95917,-7.18267 3.00896,-4.46491 2.32951,0.87357 5.24141,-5.14434 2.81483,-0.29119 2.52364,-5.14435 1.0677,0.0971 -0.0971,-4.17371 0.48532,-1.45595 -1.55301,0.29119 -5.5326,1.55301 -6.60029,1.35889 -16.59779,3.39721 -1.74714,0.29118 -0.38825,0.29119 z"
     style="fill:none;stroke-width:0.970631" />
  <path
     inkscape:connector-curvature="0"
     id="VA"
     data-name="Virginia"
     data-id="VA"
     d="m 758.93653,249.64639 h 0.29119 l 0.29118,-0.0971 v 0 l -0.19412,-0.48531 -0.38825,0.58238 v 0 z m -3.30015,-10.87107 v 0.48531 l 0.48532,-0.29119 z m 1.74714,-3.39721 -0.0971,-0.77651 v 0 z m -0.58238,1.16475 -0.19413,1.26183 -0.29119,0.48531 z m 0.87357,-2.52364 0.0971,-0.58238 -0.19413,0.58238 h 0.0971 z m 0.58237,-2.6207 0.29119,-0.67944 -0.48531,1.74713 z m 0.0971,-1.45595 0.38825,-2.13539 -0.48532,0.48532 0.0971,1.65007 z m 1.74713,-9.60925 0.19413,-0.87356 -0.0971,0.19412 -0.0971,0.67944 z m -0.38825,-2.23245 -1.26182,0.48532 -1.94126,0.87357 -0.67944,0.87356 0.29119,0.0971 -2.32952,14.4624 0.87357,2.32952 1.35888,-6.01792 2.52364,-7.86211 1.16476,-5.14435 v -0.0971 z m 1.94126,-0.7765 -0.29119,0.0971 -0.0971,0.38825 -0.48531,3.00896 0.38825,-1.0677 0.48531,-2.42657 z m -101.43096,37.17517 -0.67944,0.97063 -4.65903,5.92085 -3.6884,2.9119 -0.7765,2.52364 -5.62966,7.3768 -7.27974,3.88252 -0.67944,0.7765 1.74714,-0.29118 16.59779,-3.39721 6.60029,-1.35889 5.5326,-1.55301 1.55301,-0.29119 0.0971,0.19413 25.04229,-4.65903 24.75109,-6.3091 38.82525,-11.0652 v 0 l -0.29119,-0.48531 -0.0971,-0.29119 0.67944,0.67944 v 0 0 l 0.77651,-0.19413 -0.0971,-0.0971 -0.67944,-3.30015 0.48532,0.0971 1.55301,2.91189 v 0 0 l 0.29119,-0.0971 0.19412,-0.0971 -0.38825,-0.7765 -3.97959,-6.11498 -4.95022,0.87357 -2.23245,1.8442 -2.13539,-1.94126 -7.27973,-2.42658 -5.04728,-0.19413 9.80337,-0.87357 5.43554,3.6884 1.55301,-2.42658 -4.36784,-5.53259 3.10602,0.19412 -1.65008,-4.4649 -3.88252,0.19413 -9.221,-7.47386 h -1.16476 l 13.00646,6.40616 -0.87357,-4.4649 0.87357,-1.45595 -6.60029,-2.52364 -5.72672,-0.38825 -2.81483,-2.52364 -2.32952,1.45594 -0.87357,-6.69735 0.97063,0.19412 -0.19412,-5.43553 -0.19413,-0.19413 -0.19413,0.0971 -0.19412,-0.0971 -0.48532,-0.38825 -0.29119,-0.29119 -3.10602,-1.35888 -3.20308,-2.32952 -4.4649,-1.16475 -0.29119,-0.0971 v 0.0971 l -0.58238,4.07665 -9.02687,-3.88253 0.19413,5.62966 -4.95022,9.41513 -3.00896,3.30014 -1.94126,5.72673 -5.92085,-2.03833 -2.9119,13.20058 -2.32951,4.46491 -0.38825,5.82379 -1.74714,2.81483 -6.50323,1.94126 -5.33847,4.17371 -2.52364,0.38825 -2.42658,2.13539 -6.11498,-2.23245 -1.06769,-3.00896 -0.19413,-0.0971 z"
     style="fill:none;stroke-width:0.970631" />
  <path
     inkscape:connector-curvature="0"
     id="WI"
     data-name="Wisconsin"
     data-id="WI"
     d="m 555.97754,113.46683 -2.42658,3.00896 -1.45594,4.36784 0.67944,2.42657 z m -55.71423,-22.809835 1.45595,-2.03833 -1.0677,0.97063 z m 2.23245,-3.20309 -0.48531,-0.58238 -1.0677,0.67945 1.55301,-0.0971 z m -21.15976,5.43554 -2.23245,2.52364 1.0677,11.647575 -6.21204,5.62966 -1.16476,5.43554 3.39721,3.10602 -0.97063,13.39471 3.59133,2.71777 2.32952,0.19412 7.37679,4.46491 4.65903,4.85315 5.92085,3.00896 1.35889,7.47386 v 0.48531 0 l 2.81483,3.39721 -0.77651,2.62071 0.97063,5.72672 2.9119,3.97959 5.33847,2.81483 -0.0971,0.48532 v 0 l 21.15976,-2.42658 7.86211,-0.97063 13.10352,-1.8442 -0.38825,-1.45595 v -4.56197 l -2.62071,-4.85315 -0.67944,-6.11498 1.26182,-6.79442 -0.67944,-5.24141 2.32952,-6.50322 -0.87357,-1.0677 0.19412,-6.01791 1.26182,-4.56197 -1.45594,-1.55301 -2.81483,0.97063 -1.55301,4.07665 -3.6884,2.13539 1.16476,-5.14434 3.30014,-4.36784 0.19413,-1.94127 0.0971,-0.0971 -4.65903,-4.65903 v -6.60029 l -5.24141,-4.27078 -7.18267,-0.48531 -7.3768,-1.94127 -15.91835,-4.853155 -3.10602,-1.74714 -0.29119,0.29119 -4.95022,-0.67944 -1.65007,0.97063 0.67944,-7.08561 -7.95917,4.07665 -9.70631,1.55301 -0.0971,-0.19412 z m 19.02437,-5.14435 -0.19412,-0.67944 -0.67944,0.29119 z m -3.49427,-0.67944 0.29119,-0.58238 -0.19413,-0.19413 -0.0971,0.77651 z m 7.08561,-1.65007 -0.29119,-1.35889 -0.29119,1.65008 z"
     style="fill:none;stroke-width:0.970631" />
  <path
     inkscape:connector-curvature="0"
     id="WV"
     data-name="West Virginia"
     data-id="WV"
     d="m 686.91569,202.37665 -13.78296,3.39721 -4.27078,-18.442 v 0 l -0.19413,0.0971 -0.48531,21.25682 -3.10602,4.65903 -3.59134,2.71777 -0.67944,-0.77651 -3.97959,5.43554 0.29119,4.27077 -2.42658,0.38826 -3.30014,5.04728 1.16476,3.30014 -1.45595,3.20309 -4.17371,2.03832 v 0 0.19413 l 1.94126,6.79442 5.5326,6.69735 3.10602,1.74714 h 2.42657 l 0.29119,0.0971 0.19413,0.0971 1.06769,3.00896 6.11498,2.23245 2.42658,-2.13539 2.52364,-0.38825 5.33847,-4.17371 6.50323,-1.94126 1.74714,-2.81483 0.38825,-5.82379 2.32951,-4.46491 2.9119,-13.20058 5.92085,2.03833 1.94126,-5.72673 3.00896,-3.30014 4.95022,-9.41513 -0.19413,-5.62966 9.02687,3.88253 0.58238,-4.07665 v -0.0971 0 l -2.81483,-4.85315 -5.82379,-0.67945 -3.39721,2.62071 v 1.94126 l -2.91189,0.67944 -4.27078,3.00896 -2.23245,0.48532 -4.46491,6.3091 -2.23245,-10.19163 -1.94126,0.48532 z"
     style="fill:none;stroke-width:0.970631" />
  <path
     inkscape:connector-curvature="0"
     id="DE"
     data-name="Delaware"
     data-id="DE"
     d="m 743.98881,186.36123 0.38825,1.45595 8.05624,23.00396 9.22099,-2.71777 -0.0971,-0.19413 h 0.19413 l 0.29119,0.0971 v 0 l 0.19412,-0.0971 -0.19412,-0.38825 -2.32952,-6.21204 -11.35638,-10.774 0.48531,-7.47386 v 0 h -2.32951 l -1.74714,1.35888 -0.7765,1.94126 v 0 z"
     style="fill:none;stroke-width:0.970631" />
  <path
     inkscape:connector-curvature="0"
     id="DC"
     data-name="District of Columbia"
     data-id="DC"
     d="m 728.36164,207.81218 0.48532,0.38825 0.19412,0.0971 0.19413,-0.0971 0.19413,0.0971 0.67944,0.38825 0.19413,0.29119 v 0.67944 l 0.19412,0.38825 1.26182,-2.32951 -1.35888,-0.77651 -1.65007,0.0971 -0.38826,0.7765 z"
     style="fill:none;stroke-width:0.970631" />
  <path
     inkscape:connector-curvature="0"
     id="MD"
     data-name="Maryland"
     data-id="MD"
     d="m 761.75136,216.93611 0.67944,-5.2414 -0.58238,3.88252 -0.38825,1.65007 -0.0971,0.19413 0.29119,-0.0971 0.0971,-0.38826 z m 0.48531,-9.02687 -0.19412,0.0971 0.19412,0.58238 v 1.16475 -1.8442 0 z m -73.37972,-6.01791 2.23245,10.19163 4.46491,-6.3091 2.23245,-0.48532 4.27078,-3.00896 2.91189,-0.67944 v -1.94126 l 3.39721,-2.62071 5.82379,0.67945 2.81483,4.85315 v 0 l 0.29119,0.0971 4.4649,1.16475 3.20308,2.32952 3.10602,1.35888 0.29119,0.29119 0.38826,-0.7765 1.65007,-0.0971 1.35888,0.77651 -1.26182,2.32951 v 0.0971 l -1.8442,5.62966 6.01792,3.88252 6.01791,0.29119 3.97959,1.8442 -1.65008,-4.65903 -5.14434,-1.74714 -1.26182,-3.97958 3.20308,4.27077 2.62071,0.38826 -2.32952,-2.32952 -1.8442,-6.89148 0.48532,-3.97959 -2.03833,-4.36784 2.13539,-1.74713 1.55301,-5.62967 -0.58238,8.34743 1.65007,2.81483 1.55301,-3.30014 0.87357,5.43553 -1.65007,3.97959 4.75609,1.74714 -4.07665,1.35888 2.13539,3.97959 3.49427,1.16475 1.94126,-3.3972 -0.19412,4.75609 3.30014,-0.0971 2.13539,2.42657 h 0.0971 l 0.67944,-0.87356 1.94126,-0.87357 1.26182,-0.48532 -0.0971,-0.19412 2.52364,-7.47386 v -0.29119 l -0.48532,-1.94127 v -0.0971 l -9.22099,2.71777 -8.05624,-23.00396 -0.38825,-1.45595 -1.65008,0.48532 -6.89148,2.13539 -37.95168,10.57988 -6.89148,1.8442 -1.74714,0.48531 z"
     style="fill:none;stroke-width:0.970631" />
  <path
     inkscape:connector-curvature="0"
     id="NJ"
     data-name="New Jersey"
     data-id="NJ"
     d="m 766.99276,185.97298 -0.48531,-1.16476 v 1.16476 z m 0.97064,-3.59134 0.29119,-2.91189 -0.58238,2.52364 z m -3.97959,-29.79837 -10.19163,-2.52365 -1.74714,-0.48531 -1.65007,-0.38825 v 0 l -4.07665,9.02687 1.74714,2.13539 -0.0971,6.50322 1.8442,0.29119 3.78546,9.90044 -0.19412,0.29119 -4.75609,6.98855 0.48531,5.33847 11.45345,3.88252 0.0971,4.46491 2.62071,-3.6884 0.38825,-5.33847 2.71777,-1.8442 -1.0677,-3.97959 2.03833,-4.75609 V 168.0163 l -0.67944,-3.39721 -4.56197,0.0971 1.16476,-4.65903 0.67944,-7.47386 v 0 z"
     style="fill:none;stroke-width:0.970631" />
  <path
     inkscape:connector-curvature="0"
     id="NY"
     data-name="New York"
     data-id="NY"
     d="m 763.69262,160.44538 -1.45595,2.03832 -0.38825,0.58238 z m 13.39471,-4.75609 4.85316,-4.27078 v -0.19413 z m -12.71527,3.00895 v -3.30014 l -0.29119,1.74713 z m 22.51864,-15.5301 -1.16475,-0.29119 -0.19413,0.87357 z m 2.62071,-1.74713 -0.0971,0.97063 0.19412,-0.58238 -0.0971,-0.38825 z m -2.71777,0.0971 -6.50323,6.01791 -9.9975,4.27078 -2.6207,2.23245 -0.19413,2.13539 -2.71777,2.23245 0.38826,2.9119 4.17371,-1.65008 6.11498,-4.95022 6.79441,-3.59133 10.2887,-9.70631 -7.27974,5.53259 -2.32951,0.97064 z m 3.00896,-4.07665 0.38825,-0.58238 -1.16476,1.35888 z m -109.09895,-3.59134 -1.55301,-0.19412 1.16476,1.55301 z m 32.22496,-29.70131 0.19412,-1.0677 -0.7765,0.97064 0.58238,0.0971 z m 0.48531,-6.988555 -0.38825,0.19413 -0.48532,1.06769 z m -41.0577,55.131865 0.67944,2.91189 5.14435,1.26182 29.50719,-8.05624 29.70131,-8.92981 5.43554,4.17372 1.06769,2.42658 6.3091,2.71776 0.19413,0.38826 1.65007,0.38825 1.74714,0.48531 10.19163,2.52365 -0.19413,-0.48532 0.87357,3.97959 1.94126,-0.48532 1.0677,-4.36784 v -0.0971 l -1.74714,-1.65007 2.52364,-3.10602 -1.16476,-1.45595 -3.68839,-14.26828 -0.19413,-0.97063 -0.48532,-0.29119 -0.29119,-4.27078 -0.29119,-4.65903 -0.29118,-5.04728 v -0.29119 l -0.19413,0.0971 -4.85316,-15.918355 -5.14434,-8.05624 -1.45595,-9.60924 -4.36784,-10.191633 -0.58238,0.29119 -20.28619,6.794418 -4.07665,4.367845 -4.56197,8.73568 0.19413,1.94126 -6.01791,9.123935 3.68839,1.26182 1.0677,6.89148 -4.27078,5.62967 -12.81233,7.76504 -2.42658,-0.97063 -9.51218,1.35889 -8.83275,5.33847 0.48532,2.81483 3.10602,2.71777 -1.74714,8.54155 -6.98854,8.1533 -0.0971,0.0971 z"
     style="fill:none;stroke-width:0.970631" />
  <path
     inkscape:connector-curvature="0"
     id="PA"
     data-name="Pennsylvania"
     data-id="PA"
     d="m 750.20084,148.7978 -6.3091,-2.71776 -1.06769,-2.42658 -5.43554,-4.17372 -29.70131,8.92981 -29.50719,8.05624 -5.14435,-1.26182 -0.67944,-2.91189 -1.65007,1.26182 -2.6207,1.8442 -4.7561,4.85315 -0.58238,0.48532 2.71777,11.93876 0.48532,2.13539 2.42657,10.48282 0.48532,2.03832 v 0 l 4.27078,18.442 13.78296,-3.39721 1.94126,-0.48532 1.74714,-0.48531 6.89148,-1.8442 37.95168,-10.57988 6.89148,-2.13539 1.65008,-0.48532 v 0 l 0.7765,-1.94126 1.74714,-1.35888 h 2.32951 l 0.29119,-0.87357 3.78546,-4.27078 0.38825,-0.67944 0.29119,-0.19413 -3.78546,-9.90044 -1.8442,-0.29119 0.0971,-6.50322 -1.74714,-2.13539 4.07665,-9.02687 v 0 l -0.19413,-0.38826 z"
     style="fill:none;stroke-width:0.970631" />
  <path
     inkscape:connector-curvature="0"
     id="ME"
     data-name="Maine"
     data-id="ME"
     d="m 796.98527,97.063155 h -0.0971 l 0.19412,0.0971 -0.0971,-0.0971 z m 7.18267,-20.674443 -0.77651,-1.164758 v 0.582379 z m -1.35888,-1.067695 v -0.970631 l -0.0971,-0.582379 z m 3.49427,-4.076651 -0.19413,-0.09706 0.0971,0.291189 0.0971,-0.194126 z m 9.70631,-4.853156 -0.19413,-1.455947 -0.38825,0.679442 z m -2.42658,0.582379 0.0971,-1.067694 -1.16476,0.194126 1.06769,0.873568 z m 3.59134,-3.203083 h -0.38825 v 0.194126 z m -4.85316,1.455947 -0.87357,-0.194126 -0.0971,0.873568 0.97063,-0.679442 z m 4.95022,-3.008957 0.87357,0.679442 -0.29119,-0.776505 -0.58238,0.09706 z m -2.6207,0.09706 -0.87357,1.650073 1.16476,-0.582379 z m -4.17372,0.09706 -0.38825,0.582379 0.29119,0.873568 0.0971,-1.455947 z m 5.72673,-3.203083 -0.0971,-0.776505 -0.29119,0.485316 0.38826,0.291189 z m -0.48532,0.388253 -0.87357,-0.776505 v 0.679442 l 0.87357,0.09706 z m -5.43553,2.232452 -0.19413,-1.067695 -0.38825,0.873568 z m 9.22099,-3.39721 -1.45594,2.135389 -0.0971,-1.55301 1.55301,-0.582379 z m 7.08561,-6.503229 -0.67944,-0.970631 -0.38825,0.194126 z m 2.6207,-4.36784 -0.58237,-0.291189 -0.0971,0.291189 h 0.67944 z m 1.26183,-7.570923 h -0.87357 l 0.97063,0.291189 -0.0971,-0.291189 z m 1.45594,0.970631 -0.29119,-1.747136 -0.7765,-0.09706 1.06769,1.8442 z m -1.55301,-1.55301 -0.19412,-1.844199 -0.67945,1.26182 z m -56.29661,15.23891 14.07415,33.001458 0.19413,0.67944 6.11498,7.47386 v -0.0971 l 0.97063,-0.29119 0.19413,-5.5326 1.55301,-1.94126 0.97063,-5.14435 -0.87357,-0.87357 1.65007,-5.047274 5.62966,-2.620704 3.6884,-4.464904 1.35888,-7.765049 5.92085,-0.388253 -0.7765,-3.979588 7.3768,-2.81483 0.48531,-4.36784 1.74714,0.388252 4.85315,-3.979588 2.13539,-5.144345 -4.95022,-4.950219 -5.2414,-1.067695 -1.94127,-3.979588 v -2.329515 l -3.20308,0.970632 -3.59134,-1.261821 v -3.979588 l -9.70631,-20.965634 -7.0856,-3.68839799 -7.86212,6.60029199 -2.13539,-0.388253 -1.8442,-3.397209 -2.52364,0.970631 -3.59133,17.859614 1.26182,5.823788 1.06769,11.8417 -2.81483,9.123934 1.94126,1.455946 -2.32951,4.464904 -2.52364,-0.388253 -0.19413,0.194127 z"
     style="fill:none;stroke-width:0.970631" />
  <path
     inkscape:connector-curvature="0"
     id="MI"
     data-name="Michigan"
     data-id="MI"
     d="m 570.14876,116.86404 -0.48532,-0.77651 -0.0971,0.97063 0.58238,-0.19412 z m 1.55301,-1.74714 -1.16476,-1.55301 -0.19413,0.67944 z m 0.97063,-6.98854 -0.97063,-0.87357 v 0.19412 z m -2.42658,76.00042 12.03583,-1.94126 3.39721,-0.67944 14.85065,-2.62071 0.29119,1.26182 0.97063,-0.29119 6.40617,-1.35888 6.11498,-1.45595 6.21204,-1.55301 -0.0971,-0.29119 3.20309,-6.3091 -0.29119,-5.24141 3.59133,-9.02687 2.81483,1.65007 1.0677,-2.03832 -0.29119,-7.76505 -2.62071,-4.85316 -3.88252,-10.28869 -3.39721,-3.78546 -1.74714,-0.48531 -6.3091,4.36784 0.67944,0.87356 -3.30014,6.21204 -3.20309,-0.58238 -0.97063,-6.50322 1.35889,-0.48532 2.81483,-6.50323 0.29119,-11.45345 -4.36784,-9.70631 -9.70632,-1.65007 -0.97063,-1.45595 -9.02687,-2.620705 -4.07665,5.047285 0.38825,4.36784 -3.10602,3.88252 0.67945,6.01792 -3.00896,2.13539 v -7.57093 l -2.71777,5.72673 -3.20308,5.04728 -2.13539,1.65007 1.06769,5.33847 -1.35888,5.5326 0.77651,6.89148 -0.97064,3.39721 6.98855,13.39471 0.87357,5.14435 -0.87357,9.51218 -4.65903,10.67695 -0.58238,0.38825 z m 20.77151,-87.453875 -2.52364,0.19412 1.55301,1.16476 z m -14.7536,2.52364 h -0.7765 l 0.87357,0.38825 -0.0971,-0.38825 z m 16.98605,-12.32702 -0.97063,-1.55301 -0.38825,0.0971 1.35888,1.45594 z m -87.93919,7.08561 3.10602,1.74714 15.91835,4.853155 7.3768,1.94127 7.18267,0.48531 5.24141,4.27078 v 6.60029 l 4.65903,4.65903 v -0.0971 l 3.78546,-10.96814 4.56197,-3.20308 3.49427,-3.88252 0.58238,3.49427 3.59134,-5.532605 8.63861,-3.30014 0.67945,-1.35889 8.73568,1.0677 3.39721,1.74713 1.65007,-4.27077 1.55301,0.97063 6.79442,-1.0677 -1.65008,-2.71777 -3.00895,-1.74713 0.58238,-6.3091 -5.92085,3.30014 -5.43554,-0.67944 -1.74714,-4.17371 0.58238,-1.358888 -7.37679,3.494268 -4.7561,0.29119 -8.54155,5.24141 -0.97063,1.94126 -5.24141,-1.26182 -3.30015,1.45595 -6.60029,-5.72672 -14.65653,-4.46491 -0.29119,-1.747133 -9.41512,9.026873 -5.33847,1.35888 -7.57093,5.72673 -0.29119,0.19412 z m 34.36035,-22.033327 -11.35639,5.629661 3.78546,3.688396 1.45595,-3.688396 3.88253,-4.756093 z m -12.71527,-13.297647 -7.76505,5.338471 -0.38825,2.620704 6.11497,-4.464903 z"
     style="fill:none;stroke-width:0.970631" />
  <path
     inkscape:connector-curvature="0"
     id="AK"
     data-name="Alaska"
     data-id="AK"
     d="m 25.978409,499.43267 -0.669741,0.26787 0.535799,0.13401 0.133998,-0.40185 z m 4.95605,0.80367 v 0 0.13401 z m -2.411054,-2.27711 v 0.40185 l 0.2679,-0.13401 -0.2679,-0.2679 z m -1.205526,-0.66973 v -0.13399 0 z m 2.544996,1.33948 v -0.2679 l -0.133998,0.13399 0.133998,0.134 z m -0.2679,-0.2679 v -0.13401 H 29.32709 Z m -104.478735,-88.00325 -0.133943,0.93764 0.267894,2.67894 -0.133943,-3.61658 z m -0.669736,-3.61657 0.133943,1.20553 0.133943,-0.40184 -0.267894,-0.80369 z m 105.148471,90.01247 0.133998,-0.80369 -0.535784,0.26789 0.401828,0.5358 z m 15.269974,6.5634 -0.133998,-0.134 0.267882,0.53578 -0.133992,-0.40184 z m -9.912082,-4.68815 -1.473412,-1.33948 v 3.21473 z m 3.348677,2.94684 -0.133998,-0.93763 -2.277096,-0.134 2.411053,1.07158 z m 8.036813,1.87525 -0.133992,0.2679 h 0.2679 l -0.134004,-0.2679 z m 0.5358,0.13399 h -0.2679 l 0.535788,0.13401 z m 1.607352,0.5358 h -0.133992 -0.134004 0.267888 z m -118.27528,-90.81614 0.535788,0.134 0.401843,-0.134 z m 115.328464,88.94088 -1.071587,-0.13401 0.401843,0.40185 0.669744,-0.2679 z m -122.561608,-99.38874 -1.875258,-0.80369 -0.133942,0.40184 2.009206,0.40185 z m 125.910268,99.65664 -0.267876,-0.13401 v 0.13401 z m 8.170776,1.60736 -5.223936,0.40185 -1.20552,0.53578 z M -86.537159,381.82716 h -1.473419 l 0.267895,0.40184 z M 73.261737,510.28243 v -0.53579 h -0.267888 z m 6.965244,0.13399 0.2679,-0.26787 -0.2679,-0.2679 z m 5.223952,1.47343 0.267888,-0.134 h -0.134004 l -0.133992,0.134 z m -4.286308,-2.41105 -0.134004,-0.53579 h -0.267888 l 0.401844,0.53579 z m 8.974448,2.00921 -0.13401,0.13399 h 0.13401 z m -175.872552,-136.4921 -2.009204,0.2679 2.544996,2.27709 z m 168.773356,134.48289 0.2679,-0.80369 h -0.134004 l -0.133992,0.80369 z m 22.637063,-2.00919 0.13399,-0.2679 -0.2679,-0.13401 0.13401,0.40185 z m -3.34868,-1.20554 -4.688147,4.15235 3.348677,-0.26787 3.88446,-3.08079 z m 8.43867,1.47341 -0.93764,-0.26787 0.66974,0.53577 z m 1.87526,0.13401 -1.47342,-0.40184 -0.26789,0.13401 1.74131,0.26789 z m -5.09,-1.87526 h -1.4734 l 2.54499,0.66975 z m 6.16157,1.33947 -0.134,-0.26789 -0.53579,0.134 0.66973,0.134 z m -4.01841,-1.60737 -0.53579,-0.26788 v 1.4734 z m 17.14522,3.34868 -0.13399,-0.134 h -0.2679 l 0.40185,0.134 z m 0.2679,-0.134 v -0.134 l -0.2679,-0.13399 0.2679,0.2679 z m -2.2771,-0.80368 0.2679,0.53578 v -0.13399 l -0.2679,-0.40184 z m 1.20553,0 -1.20553,-0.40185 1.47343,1.07159 z m 1.74131,-1.33947 v 0 0.13399 z m 15.9397,2.00921 -0.26788,-0.5358 h -0.13401 l 0.40185,0.5358 z m 144.12708,-8.97445 -0.26788,-0.2679 0.13399,0.2679 h 0.134 z m -162.34388,4.15235 v -0.13401 l -0.134,0.13401 z m 166.22836,-6.5634 0.40184,0.53577 h 0.2679 z m -146.40419,10.04604 -0.13399,0.13399 v 0.40184 l 0.13399,-0.53579 z m -16.60944,-2.41106 0.2679,-1.07158 h -0.13401 l -0.13399,1.07158 z m 170.78256,-10.71577 -1.20553,0.66975 1.07158,0.53577 0.134,-1.20552 z m -168.37151,10.04603 -0.134,-0.26789 z m -10.04603,-2.94684 -3.34868,0.66974 -2.94684,3.88446 z m 23.97652,5.08999 -0.80367,0.66975 0.80367,-0.13401 v -0.5358 z m 154.44102,-12.85892 -0.26789,-0.53579 -0.13399,0.2679 0.40183,0.26789 z m -167.29995,9.37629 -0.93762,-0.13399 0.93762,0.93762 v -0.80367 z m 158.45944,-7.63498 -0.2679,0.2679 0.2679,0.93763 z m -156.31628,7.50104 -0.40182,0.134 0.53577,0.40185 -0.13399,-0.53579 z m 9.9121,2.81288 h -0.40184 l -0.2679,-0.26788 z m -10.98367,-2.81288 -0.66974,-0.40183 0.2679,0.40183 z m 8.97445,1.47342 -1.20552,0.40184 -0.80368,2.14316 z m 145.46657,-9.37628 v 0.93762 l 0.53578,-0.66975 z m -161.27232,5.08996 1.07158,-0.26787 h -0.13399 l -0.93764,0.26787 z m -1.33947,-0.80367 -0.2679,-0.26789 v 0.13399 l 0.2679,0.13401 z m 162.61179,-5.22394 -0.2679,-0.134 -0.134,0.40184 0.40184,-0.2679 z m -146.93999,8.03683 -0.26788,-0.134 -0.2679,0.40184 0.53578,-0.2679 z m 145.60052,-7.76893 0.134,-0.66974 -0.2679,-0.13401 0.13399,0.80369 z m -1.07159,-0.66974 -0.40183,0.5358 0.66973,0.13399 -0.2679,-0.66973 z m -138.90313,6.56341 -0.2679,-0.26789 h -0.13401 l 0.40185,0.26789 z m 138.5013,-8.97445 1.07157,0.40184 0.40185,-0.5358 -1.47342,0.13399 z m 1.60736,-0.93763 -0.40184,0.26788 0.66974,0.40185 z m -3.08078,0.80367 -0.2679,-0.53579 -0.2679,0.2679 z m 13.39471,-4.95603 -1.74131,4.95603 1.74131,-1.07157 z m -158.72733,10.31392 h -0.134 v 0 z m 146.93998,-8.43867 -1.20552,1.20553 0.26789,1.33946 z m -124.70476,10.71577 v -0.53579 l -0.13399,0.2679 z m 123.23134,-12.05524 3.88447,5.89367 8.70655,5.49184 -2.00919,-4.68815 -8.30473,-7.0992 z m -128.58922,9.91209 -0.13399,-0.40185 -0.26789,0.134 0.40185,0.26788 z m 133.14342,-12.18918 -0.53578,2.00921 0.93763,-0.66975 z m 2.81289,0 -0.13399,1.33946 1.20552,0.40185 -1.07158,-1.74131 z m -131.67001,10.44787 -0.66972,-0.134 -0.66975,0.2679 1.33947,-0.13401 z m 13.79656,1.07158 -0.5358,0.93763 0.2679,-0.80369 0.2679,-0.13399 z m 2.0092,0.134 -1.20552,0.13399 0.66973,0.80369 0.53579,-0.93763 z m -81.171947,-17.14524 1.33948,0.66974 -0.26789,-0.2679 z m 53.177007,13.26077 0.134,-0.13399 z m 0.40184,-0.13399 h 0.134 v -0.13401 z m 138.50131,-10.31393 0.66973,2.54499 1.33947,-0.80368 z m -134.88474,8.84049 0.13399,-0.13399 v 0 z m 129.12501,-7.76893 0.66974,6.16157 1.33948,-1.33948 z m 0.66974,-2.00921 3.08078,4.28631 -0.40184,-2.81287 z m -9.51024,1.07159 -0.80369,2.545 1.07158,-1.74132 z m -107.15768,6.5634 -0.13401,-0.13399 z m 12.72498,0.2679 -0.2679,-0.40184 0.2679,0.53579 v -0.13401 z m 94.70059,-8.84052 5.35789,8.84052 -0.80369,-6.02762 z m -87.19956,4.68816 -0.40185,0.40183 0.66974,0.2679 z m -1.74132,0.2679 0.134,-0.40184 h -0.53579 l 0.40185,0.40184 z m -1.33947,0 -3.48262,2.2771 -4.28631,5.62577 2.14315,2.27712 9.91209,-7.36712 z m 84.52062,-8.70656 -0.93762,-0.5358 v 0.80369 z m -85.3243,7.09919 0.134,0.53578 0.93763,0.5358 -1.07157,-1.07158 z m 87.8693,-9.64419 -2.67894,1.33948 2.54498,0.80367 0.13401,-2.14315 z m -1.74131,0 -0.2679,-0.2679 -0.134,0.2679 h 0.40184 z m 8.17078,-2.14315 -1.07159,-0.40184 -0.26789,0.80368 z m -5.75974,0.93763 -0.93763,-0.134 v 0.2679 l 0.93763,-0.13401 z m 2.94684,-1.07159 5.49184,8.03684 -1.47342,-7.36709 z m -88.40509,8.70658 -3.21473,2.41103 1.47342,1.60737 4.28631,-3.21474 z m -36.43362,-5.08999 -0.13399,-0.13401 v 0.13401 z m -1.47341,-0.66975 -0.134,-0.66973 v 0.26789 z m 41.12177,1.74131 -0.2679,0.13401 v 0.13399 l 0.2679,-0.2679 z m -1.33948,-0.26789 h -0.13399 l -0.26789,0.40185 0.40185,-0.40185 z m 3.21473,-1.07157 -0.40184,-0.2679 v 0.13399 l 0.40184,0.134 z m 1.07158,-0.13401 -0.40183,-0.2679 v 0.13401 l 0.40183,0.13399 z m -1.74131,-0.40184 h -0.5358 v 0.134 z m 26.65548,-2.67894 0.13399,-0.40184 -0.2679,0.26788 0.13401,0.13401 z m 8.17076,-4.2863 1.60737,-2.00921 -0.53579,0.40184 z m -16.34154,-0.2679 0.53579,-0.40185 0.13399,-0.53579 -0.66973,0.93764 z m 0,-1.47341 -0.5358,0.40182 0.93765,-0.26788 -0.40185,-0.134 z m -21.96734,0 -0.13399,-0.5358 h -0.13401 l 0.26789,0.5358 z m 21.43154,-0.13401 -0.53578,0.53579 -0.26789,0.5358 z m 14.73419,-1.60736 h 0.13401 0.13399 -0.26789 z m 0.66973,0 -0.26788,-0.134 v 0.134 z m -1.60735,-0.134 0.13399,0.134 v -0.134 z m -10.98367,0.80368 0.53579,-0.53578 -0.66973,0.53578 h 0.13399 z m 8.17078,-1.60736 z m -6.56342,0.40183 -3.21474,5.22394 4.15238,-4.82209 z m -4.15236,0.66975 -0.40184,-0.53578 -0.13399,0.26788 0.53577,0.2679 z m 10.17999,-1.20552 -0.2679,-0.13401 0.13399,0.13401 h 0.134 z m 3.48261,0.2679 v -0.93765 l -0.26788,0.40185 z m -98.31716,-10.31393 -6.42947,-0.2679 4.42025,4.68815 z m 91.48586,9.51024 0.2679,0.93763 0.66974,-1.07159 -0.93764,0.13399 z m -5.35789,-0.13401 -0.40184,2.94684 0.66974,-1.87525 z m -116.266067,-22.2352 0.134,-0.53579 v 0 z m 114.926607,20.35995 0.13399,0.40185 0.26789,-0.134 -0.40185,-0.2679 z m -0.66973,0.53579 -0.2679,-0.80369 -0.40185,0.2679 z m 6.29551,-1.60735 v -0.5358 l -0.40185,0.2679 z m -6.02763,-0.80369 v 1.33948 l 0.40185,-0.93764 z m -10.17997,-1.60736 v -0.40185 0 z m -69.92039,-16.60946 0.26789,-0.80367 -0.134,0.13399 -0.13399,0.66973 z m 0.40185,-1.33946 -0.13401,-0.134 -0.13399,0.134 h 0.2679 z m 5.89365,-3.21473 v -0.13399 0 z m 0,-0.5358 -0.13399,-0.26789 v 0 z m 2.41106,-3.48261 v 0 h -0.134 z m 0.80368,0.2679 -0.53578,-0.2679 v 0.13399 l 0.53578,0.134 z m -0.80368,-0.53579 v -0.2679 l -0.2679,0.2679 z m -21.43154,-6.29553 -0.26788,-0.66974 -0.134,-0.40182 0.40184,1.07156 z m 2.00921,-2.41105 h 0.13401 l 0.13399,0.13401 -0.26789,-0.13401 z m -3.61658,-0.66972 -1.07157,-1.33947 0.80369,1.07157 z m -2.14315,-2.14316 h -0.26789 l 0.40184,0.134 -0.13399,-0.134 z m 0.2679,-1.47342 z m -0.2679,-0.13401 v 0 l 0.2679,0.13401 z m 35.49598,10.58183 -1.4734,0.13401 0.80368,0.40184 0.66972,-0.53579 z m -36.96939,-12.99288 -1.07159,4.01843 3.34868,0.53579 4.42026,4.5542 2.67894,-1.20553 z m 23.44075,1.60738 v -0.26789 0.13399 0.13401 z m -6.69737,-14.1984 -0.2679,-0.13399 0.13401,0.13399 h 0.13399 z m 3.88447,1.33947 0.40185,-0.134 h -0.13401 l -0.2679,0.134 z m 2.67894,-0.80368 h 0.40184 l 1.20553,-0.53579 z m 4.82211,-1.47341 0.26789,-0.2679 -0.40185,0.2679 h 0.13399 z m 0.66972,-0.13401 0.80369,-0.40184 -0.66975,0.134 -0.13399,0.2679 z m 2.00922,-0.80367 -0.66975,0.13399 v 0.134 l 0.66975,-0.26788 z m 0.80367,-0.13401 z m 85.19037,-24.11047 -0.53579,-0.40184 -0.93763,-0.40185 z m -70.18829,-2.94684 1.20552,-1.60735 -0.66973,0.53578 z m 1.60736,-1.87525 0.5358,-0.80369 -0.2679,0.2679 z m 0.80368,-1.07158 0.93763,-0.80368 -0.53579,0.26788 z m 42.19334,0.26789 0.66974,0.66975 h 0.40184 z m -21.56548,-8.84051 -5.49184,4.55421 -3.34866,-0.93763 -7.76893,4.42024 -1.47343,-0.93762 -8.8405,9.91209 -8.97445,2.00921 0.80366,4.82209 4.01843,5.49183 7.50103,7.23315 -1.20552,2.81288 5.62578,2.41105 -2.94684,0.53579 -3.61658,-2.81288 1.87527,4.15235 -2.41105,1.47343 -7.63499,-6.96526 -6.02762,1.07158 -10.31393,3.88446 4.68815,5.22393 -0.66972,3.21474 3.08077,3.75051 10.17997,4.01843 7.3671,-3.75053 1.20552,2.81289 -2.00919,8.43867 h -6.16158 l -7.23313,3.21474 -0.40185,-2.27712 -3.75051,1.47343 -1.74132,3.88446 -6.16157,4.68816 v 6.8313 l 2.41105,1.07156 -1.87525,5.75974 8.03681,6.96524 5.08999,-2.14315 -1.07157,8.57262 1.47341,1.87525 6.16158,1.33947 2.2771,2.54499 5.35788,0.40185 2.54499,2.67895 5.49184,-1.60736 -2.545,3.48262 -2.00922,7.09919 -16.34154,10.58182 -2.14315,2.14316 -3.08078,-1.20553 -4.95604,1.20553 -7.0992,4.68815 11.11761,-3.21474 1.60737,2.41105 14.33233,-4.68815 0.40185,1.87527 5.62578,-5.62579 11.78735,-8.17077 0.93763,0.5358 10.31391,-8.17077 -2.67892,-3.21474 3.48261,-5.75973 9.10841,-10.84971 6.96524,-1.33948 2.14316,1.47343 -8.43867,2.41104 -2.27711,8.97445 0.2679,4.82211 2.94684,-0.2679 14.19839,-8.57261 1.07158,-3.21474 -1.20552,-4.95604 4.2863,1.07157 3.08079,-2.0092 8.8405,5.35788 -0.66973,1.47343 20.09206,2.545 4.68815,-1.47343 1.33948,2.00921 17.41312,8.30472 2.94684,-1.74131 0.2679,-10.04603 2.2771,4.55419 11.25154,8.17078 0.93764,3.34867 9.77814,5.49184 2.54499,7.09918 2.41105,-5.49181 4.95604,9.64419 3.34868,-5.49184 -2.67894,-6.83131 -10.31392,-1.07157 -15.80577,-15.13602 -8.57261,-6.29552 -6.56341,6.42947 h -3.88446 l -8.97446,-5.89368 -8.84051,-0.40185 -12.59102,-79.43062 -2.14316,-3.75051 -5.08999,-3.08079 -7.63499,1.47342 -5.89368,-1.20552 -7.50103,-2.94684 -7.90289,0.53577 -2.00919,-3.7505 -6.29553,-0.93765 -1.07156,-2.27709 -2.8129,3.21474 z"
     style="fill:none;stroke-width:1.33948"
     clip-path="url(#clipPath887)"
     transform="translate(-88.504323,4.9448027)" />
</svg>
